<svg width="97" height="93" viewBox="0 0 97 93" fill="none" xmlns="http://www.w3.org/2000/svg">
<path d="M37.0115 29.8981L16.9868 43.5474L42.6657 60.8236L48.7607 27.575L44.5641 24.75L37.0115 29.8981C38.3772 31.3706 39.8217 32.8638 41.1376 34.1357L41.5666 33.9857L44.5641 35.8329L44.0991 36.7599L43.3651 38.2233L38.7689 34.9636L41.1376 34.1357C39.8217 32.8638 38.3772 31.3706 37.0115 29.8981Z" fill="#008CC7"/>
<path d="M50.6591 31.9213L48.7607 27.575L42.6657 60.8236L32.8004 77.8826L31.375 80.5989L16.9868 86.6837L2.99835 76.3614L1.21482 74.8402L1 79.5124L16.9868 91.6818L31.375 85.2711L43.3651 64.3006L50.6591 31.9213Z" fill="#008CC7"/>
<path d="M2.99835 62.1275L1.69942 64.3006L1.21482 74.8402L2.99835 76.3614L16.9868 86.6837L31.375 80.5989L32.8004 77.8826L5.4963 58.9765L2.99835 62.1275Z" fill="#008CC7"/>
<path fill-rule="evenodd" clip-rule="evenodd" d="M25.9535 54.5045C26.8126 54.9389 27.1077 55.1553 27.539 55.6459C27.8301 55.9749 28.1935 56.4862 28.3457 56.7833C28.4979 57.0804 28.6913 57.6435 28.7675 58.0288C28.8438 58.414 28.9662 58.9245 29.0254 59.1571C29.0846 59.3898 29.3659 59.8425 29.657 60.1715C29.9312 60.5057 30.2674 60.8303 30.3884 60.8956C30.5094 60.9608 30.6395 61.0883 30.6586 61.1846C30.6827 61.2979 31.1708 61.604 31.9918 62.0036C32.6969 62.355 33.398 62.6612 33.5439 62.6539C33.7898 62.6717 33.7889 62.6999 33.5312 63.0198C33.3734 63.2072 32.9688 63.5627 32.6242 63.807C32.2685 64.0454 31.6869 64.3341 31.2961 64.4533C30.9163 64.5783 30.2576 64.6677 29.8317 64.6676C29.1479 64.6718 28.926 64.6095 26.6938 63.5352L25.9303 63.898C25.4856 64.1171 24.784 64.3124 24.2672 64.3493C23.7724 64.398 23.0506 64.3674 22.6666 64.2895C22.1717 64.1804 21.6917 63.9646 21.0055 63.5518C20.2424 63.0974 19.9433 62.8358 19.547 62.3067C19.2737 61.9443 18.9244 61.3545 18.7571 61.0063C18.5899 60.658 18.4334 60.0001 18.404 59.5542C18.3687 59.1193 18.2513 58.6259 18.1332 58.4762C18.0151 58.3265 17.7519 57.9982 17.5308 57.75C17.3037 57.5128 16.8095 57.06 16.4333 56.7569C15.9592 56.3722 15.3931 56.0527 14.642 55.7339C14.046 55.47 13.544 55.2424 13.5339 55.2083C13.5289 55.1913 13.7497 54.9661 14.0104 54.7195C14.2881 54.4677 14.8556 54.0998 15.2663 53.891C15.688 53.6882 16.0977 53.5076 16.1817 53.5098C16.2717 53.501 16.4576 53.4721 16.5935 53.4307C16.7294 53.3892 17.0723 53.359 17.3412 53.3606C17.6101 53.3621 18.1121 53.432 18.462 53.5202C18.807 53.5915 19.47 53.8629 19.9151 54.1171C20.7402 54.5619 20.7402 54.5619 21.2978 54.3176L21.3319 54.3041C21.6335 54.1848 22.009 54.0362 22.1833 53.992C22.3701 53.935 22.787 53.8729 23.1128 53.8478C23.4387 53.8228 23.9706 53.837 24.2995 53.8853C24.6674 53.9403 25.2984 54.1657 25.9535 54.5045ZM21.2321 55.8881C21.5538 55.6601 22.0954 55.3928 22.4412 55.2781C22.792 55.1805 23.3438 55.1051 23.6627 55.1193C24.1386 55.132 24.3986 55.2292 24.8917 55.5523C25.2368 55.7814 25.5899 56.1008 25.6681 56.2719C25.7632 56.4379 25.8404 56.795 25.8596 57.0491C25.8669 57.3255 25.7742 57.7344 25.6425 57.9788C25.5107 58.2232 25.2201 58.5253 24.9913 58.6601C24.7624 58.7948 24.3207 58.9295 24.0118 58.9494C23.7079 58.9863 23.233 58.9454 22.9551 58.8816C22.6771 58.8178 22.2512 58.8177 21.9914 58.8783C21.7425 58.9449 21.4237 59.0885 21.2849 59.2144C21.146 59.3403 20.9533 59.5662 20.8634 59.7328C20.7676 59.9106 20.7358 60.1802 20.786 60.3506C20.8451 60.5833 20.8192 60.684 20.6424 60.7751C20.5224 60.8395 20.3255 60.8624 20.2205 60.8201C20.1095 60.7889 19.9513 60.5029 19.8611 60.1962C19.7879 59.8843 19.6846 59.4701 19.6584 59.2553C19.6262 59.0516 19.6569 58.6523 19.7227 58.3723C19.7884 58.0923 20.0328 57.5071 20.2494 57.079C20.5788 56.4679 20.7895 56.2087 21.2321 55.8881ZM26.1381 58.8768C26.4977 58.5258 26.5585 58.3865 26.668 57.8147C26.7367 57.4502 26.8094 57.131 26.8394 57.0754C26.8633 57.031 26.9473 57.0332 27.0133 57.0688C27.0903 57.1103 27.2406 57.4637 27.3558 57.8557C27.4541 58.2528 27.5545 58.7514 27.5637 58.9714C27.5669 59.2025 27.5043 59.7137 27.4067 60.1055C27.3031 60.5085 27.0955 60.9988 26.9597 61.1981L26.9489 61.2124C26.801 61.4071 26.5622 61.7217 26.3975 61.8987C26.2397 62.0861 25.8711 62.3748 25.5853 62.5362C25.3105 62.7036 24.9008 62.8842 24.6689 62.9456C24.443 62.9959 23.9372 63.0387 23.5563 63.0341C22.9905 63.0302 22.7635 62.9508 22.3914 62.6929C22.1343 62.5113 21.8221 62.1423 21.6969 61.8741C21.5718 61.6058 21.4634 61.1747 21.4722 60.9213C21.481 60.6679 21.5846 60.265 21.7164 60.0205C21.92 59.6428 22.0579 59.5451 22.6576 59.3808C23.1163 59.241 23.6321 59.2323 24.1391 59.3191C24.568 59.3926 25.0938 59.418 25.3197 59.3677C25.5396 59.3285 25.9063 59.096 26.1381 58.8768Z" fill="#008CC7"/>
<path d="M16.9868 43.5474L42.6657 60.8236M16.9868 43.5474L5.4963 58.9765M16.9868 43.5474L37.0115 29.8981M48.7607 27.575L44.5641 24.75L37.0115 29.8981M48.7607 27.575L50.6591 31.9213L43.3651 64.3006L31.375 85.2711L16.9868 91.6818L1 79.5124L1.21482 74.8402M48.7607 27.575L42.6657 60.8236M42.6657 60.8236L32.8004 77.8826M5.4963 58.9765L2.99835 62.1275L1.69942 64.3006L1.21482 74.8402M5.4963 58.9765L32.8004 77.8826M32.8004 77.8826L31.375 80.5989L16.9868 86.6837L2.99835 76.3614L1.21482 74.8402M21.2978 54.3176C20.7402 54.5619 20.7402 54.5619 19.9151 54.1171C19.47 53.8629 18.807 53.5915 18.462 53.5202C18.1121 53.432 17.6101 53.3621 17.3412 53.3606C17.0723 53.359 16.7294 53.3892 16.5935 53.4307C16.4576 53.4721 16.2717 53.501 16.1817 53.5098C16.0977 53.5076 15.688 53.6882 15.2663 53.891C14.8556 54.0998 14.2881 54.4677 14.0104 54.7195C13.7497 54.9661 13.5289 55.1913 13.5339 55.2083C13.544 55.2424 14.046 55.47 14.642 55.7339C15.3931 56.0527 15.9592 56.3722 16.4333 56.7569C16.8095 57.06 17.3037 57.5128 17.5308 57.75C17.7519 57.9982 18.0151 58.3265 18.1332 58.4762C18.2513 58.6259 18.3687 59.1193 18.404 59.5542C18.4334 60.0001 18.5899 60.658 18.7571 61.0063C18.9244 61.3545 19.2737 61.9443 19.547 62.3067C19.9433 62.8358 20.2424 63.0974 21.0055 63.5518C21.6917 63.9646 22.1717 64.1804 22.6666 64.2895C23.0506 64.3674 23.7724 64.398 24.2672 64.3493C24.784 64.3124 25.4856 64.1171 25.9303 63.898L26.6938 63.5352C28.926 64.6095 29.1479 64.6718 29.8317 64.6676C30.2576 64.6677 30.9163 64.5783 31.2961 64.4533C31.6869 64.3341 32.2685 64.0454 32.6242 63.807C32.9688 63.5627 33.3734 63.2072 33.5312 63.0198C33.7889 62.6999 33.7898 62.6717 33.5439 62.6539C33.398 62.6612 32.6969 62.355 31.9918 62.0036C31.1708 61.604 30.6827 61.2979 30.6586 61.1846C30.6395 61.0883 30.5094 60.9608 30.3884 60.8956C30.2674 60.8303 29.9312 60.5057 29.657 60.1715C29.3659 59.8425 29.0846 59.3898 29.0254 59.1571C28.9662 58.9245 28.8438 58.414 28.7675 58.0288C28.6913 57.6435 28.4979 57.0804 28.3457 56.7833C28.1935 56.4862 27.8301 55.9749 27.539 55.6459C27.1077 55.1553 26.8126 54.9389 25.9535 54.5045C25.2984 54.1657 24.6674 53.9403 24.2995 53.8853C23.9706 53.837 23.4387 53.8228 23.1128 53.8478C22.787 53.8729 22.3701 53.935 22.1833 53.992C22.009 54.0362 21.6335 54.1848 21.3319 54.3041M21.2978 54.3176L21.3319 54.3041M21.2978 54.3176C21.309 54.3132 21.3204 54.3087 21.3319 54.3041M26.9597 61.1981C27.0955 60.9988 27.3031 60.5085 27.4067 60.1055C27.5043 59.7137 27.5669 59.2025 27.5637 58.9714C27.5545 58.7514 27.4541 58.2528 27.3558 57.8557C27.2406 57.4637 27.0903 57.1103 27.0133 57.0688C26.9473 57.0332 26.8633 57.031 26.8394 57.0754C26.8094 57.131 26.7367 57.4502 26.668 57.8147C26.5585 58.3865 26.4977 58.5258 26.1381 58.8768C25.9063 59.096 25.5396 59.3285 25.3197 59.3677C25.0938 59.418 24.568 59.3926 24.1391 59.3191C23.6321 59.2323 23.1163 59.241 22.6576 59.3808C22.0579 59.5451 21.92 59.6428 21.7164 60.0205C21.5846 60.265 21.481 60.6679 21.4722 60.9213C21.4634 61.1747 21.5718 61.6058 21.6969 61.8741C21.8221 62.1423 22.1343 62.5113 22.3914 62.6929C22.7635 62.9508 22.9905 63.0302 23.5563 63.0341C23.9372 63.0387 24.443 62.9959 24.6689 62.9456C24.9008 62.8842 25.3105 62.7036 25.5853 62.5362C25.8711 62.3748 26.2397 62.0861 26.3975 61.8987C26.5622 61.7217 26.801 61.4071 26.9489 61.2124M26.9597 61.1981L26.9489 61.2124M26.9597 61.1981C26.9562 61.2028 26.9526 61.2075 26.9489 61.2124M50.4246 39.5039C62.9932 40.8206 90.0158 39.1085 95.0432 24.3602C101.328 5.92483 74.9334 -7.90168 66.1354 7.90006C57.3374 23.7018 50.4245 5.92484 36.599 7.90006C25.5386 9.48023 29.0578 19.5319 32.2 24.3602C33.216 25.6703 35.0308 27.7624 37.0115 29.8981M45.3971 37.5287C45.0957 37.4497 44.6494 37.1775 44.0991 36.7599M37.0115 29.8981C38.3772 31.3706 39.8217 32.8638 41.1376 34.1357M41.1376 34.1357L41.5666 33.9857L44.5641 35.8329L44.0991 36.7599M41.1376 34.1357L38.7689 34.9636L43.3651 38.2233L44.0991 36.7599M41.1376 34.1357C42.2619 35.2224 43.2922 36.1475 44.0991 36.7599M22.4412 55.2781C22.0954 55.3928 21.5538 55.6601 21.2321 55.8881C20.7895 56.2087 20.5788 56.4679 20.2494 57.079C20.0328 57.5071 19.7884 58.0923 19.7227 58.3723C19.6569 58.6523 19.6262 59.0516 19.6584 59.2553C19.6846 59.4701 19.7879 59.8843 19.8611 60.1962C19.9513 60.5029 20.1095 60.7889 20.2205 60.8201C20.3255 60.8624 20.5224 60.8395 20.6424 60.7751C20.8192 60.684 20.8451 60.5833 20.786 60.3506C20.7358 60.1802 20.7676 59.9106 20.8634 59.7328C20.9533 59.5662 21.146 59.3403 21.2849 59.2144C21.4237 59.0885 21.7425 58.9449 21.9914 58.8783C22.2512 58.8177 22.6771 58.8178 22.9551 58.8816C23.233 58.9454 23.7079 58.9863 24.0118 58.9494C24.3207 58.9295 24.7624 58.7948 24.9913 58.6601C25.2201 58.5253 25.5107 58.2232 25.6425 57.9788C25.7742 57.7344 25.8669 57.3255 25.8596 57.0491C25.8404 56.795 25.7632 56.4379 25.6681 56.2719C25.5899 56.1008 25.2368 55.7814 24.8917 55.5523C24.3986 55.2292 24.1386 55.132 23.6627 55.1193C23.3438 55.1051 22.792 55.1805 22.4412 55.2781Z" stroke="#008CC7"/>
</svg>
