<svg width="33" height="37" viewBox="0 0 33 37" fill="none" xmlns="http://www.w3.org/2000/svg">
<path fill-rule="evenodd" clip-rule="evenodd" d="M1.95717 8.76317L8.65487 11.923L1.46622 13.8168L8.62828 14.4524L3.0501 16.0595L9.21298 15.4512L3.00992 20.7362L9.25481 18.6932L5.61299 23.8431L9.73293 20.0406H12.3789L12.5026 20.8115H9.03614L8.15941 23.8947H12.9974L13.121 24.665H8.15934L7.28261 28.519H23.9405L23.0638 24.665H13.8568L14.2383 23.8947H18.4438L18.7048 24.4851L18.5924 23.8947H23.0639L22.1871 20.8115H18.0053L17.8585 20.0406H21.9468L26.1961 22.4276L23.8087 18.0952L27.788 20.0257L22.7986 16.262L22.7983 16.2616L21.3709 14.9403L24.1549 15.0163L32.4998 14.133L24.208 13.5115L20.8743 13.5884L23.3899 13.1213L31.2592 10.525L23.036 11.6483L22.3302 11.8169L28.6768 6.71631L21.9817 9.42473L24.2134 1.51562L18.4009 6.26477L19.2009 0.879928L16.4669 7.79004L16.2878 8.48281L16.05 7.57451V7.14223L14.7565 0L14.442 4.88371L10.8929 0.414385L11.5639 7.43636L11.5667 7.44254L5.89798 2.17518L10.268 8.40148L12.5432 10.9568L8.27735 8.70961L0.5 5.90735L7.39717 10.0011L8.28053 10.4079L1.95717 8.76317ZM17.3654 16.1865H16.9106L17.16 16.957H17.9662L17.3654 16.1865ZM18.5672 17.7278H17.4094L17.4306 17.7936L17.565 18.499H19.2024L19.1419 18.465L18.5672 17.7278ZM16.7397 20.0406L17.0806 20.8115H15.7651L16.1468 20.0406H16.7397ZM12.3665 17.7278H12.0596L11.393 18.499H12.1322L12.3665 17.7278ZM23.9408 29.29H6.8445L4.65267 36.998H25.6943L23.9408 29.29Z" fill="#008CC7"/>
<ellipse cx="15.6115" cy="11.9468" rx="9.2057" ry="8.09332" stroke="#008CC7" stroke-linecap="round" stroke-linejoin="round" stroke-dasharray="2 2"/>
</svg>
