<svg width="3950" height="3950" viewBox="0 0 3950 3950" fill="none" xmlns="http://www.w3.org/2000/svg">
<g filter="url(#filter0_d_1693_546)">
<path fill-rule="evenodd" clip-rule="evenodd" d="M1861.19 54.1593C1847.91 54.9483 1834.67 55.8705 1821.47 56.9245L1823.85 86.7762C1798.17 88.8132 1772.62 91.3621 1747.24 94.4124L1754.4 153.984C1779.32 150.989 1804.41 148.493 1829.64 146.506L1827.29 116.651C1839.74 115.664 1852.23 114.798 1864.75 114.054C1877.62 113.289 1890.47 112.657 1903.3 112.156L1900.96 52.202C1887.73 52.7183 1874.47 53.3704 1861.19 54.1593ZM1742.55 64.8463C1716.2 68.0358 1690.02 71.7531 1664.03 75.9871L1668.84 105.501C1643.36 109.651 1618.05 114.309 1592.93 119.465L1604.99 178.24C1629.62 173.185 1654.44 168.624 1679.43 164.568L1674.64 135.051C1699.5 131.013 1724.55 127.463 1749.76 124.412L1742.55 64.8463ZM2059.55 52.4894C2033.24 51.3625 2006.81 50.7706 1980.26 50.7236L1980.21 80.781C1967.53 80.7515 1954.82 80.8473 1942.08 81.0696C1928.99 81.2982 1915.92 81.6595 1902.89 82.1522L1905.16 142.109C1917.78 141.632 1930.44 141.282 1943.13 141.06C1955.82 140.839 1968.48 140.747 1981.12 140.784L1981.2 110.726C2006.57 110.785 2031.83 111.357 2056.98 112.434L2059.55 52.4894ZM1585.91 90.3748C1559.89 95.7254 1534.08 101.598 1508.48 107.98L1515.71 137.013C1490.71 143.251 1465.91 149.985 1441.32 157.206L1458.23 214.775C1482.35 207.691 1506.69 201.09 1531.22 194.983L1523.99 165.948C1548.46 159.863 1573.13 154.258 1598 149.145L1585.91 90.3748ZM2217.8 65.8381C2191.62 62.5325 2165.29 59.7584 2138.82 57.5262L2136.29 87.5211C2110.78 85.3691 2085.14 83.7251 2059.36 82.5991L2056.74 142.542C2082.03 143.647 2107.19 145.266 2132.2 147.389L2134.74 117.396C2160.06 119.544 2185.24 122.204 2210.28 125.365L2217.8 65.8381ZM1431.86 128.778C1406.4 136.26 1381.17 144.251 1356.19 152.74L1365.83 181.116C1341.46 189.403 1317.32 198.173 1293.42 207.414L1315.06 263.377C1338.52 254.307 1362.21 245.706 1386.13 237.585L1376.5 209.207C1400.37 201.114 1424.46 193.488 1448.78 186.343L1431.86 128.778ZM2374.31 92.2519C2348.5 86.7816 2322.5 81.8333 2296.34 77.418L2291.33 107.082C2266.06 102.824 2240.63 99.0684 2215.03 95.8261L2207.49 155.35C2232.61 158.532 2257.57 162.225 2282.36 166.416L2287.38 136.754C2312.37 140.987 2337.21 145.722 2361.88 150.949L2374.31 92.2519ZM2528.05 131.584C2502.77 123.982 2477.28 116.889 2451.6 110.317L2444.15 139.416C2419.33 133.075 2394.32 127.227 2369.13 121.881L2356.67 180.575C2381.41 185.822 2405.96 191.57 2430.31 197.807L2437.76 168.711C2462.29 175.001 2486.63 181.782 2510.78 189.043L2528.05 131.584ZM1281.59 179.829C1256.86 189.396 1232.39 199.457 1208.19 209.999L1220.17 237.523C1196.57 247.815 1173.21 258.574 1150.12 269.789L1176.33 323.76C1198.98 312.759 1221.9 302.21 1245.06 292.127L1233.08 264.6C1256.22 254.538 1279.61 244.929 1303.24 235.787L1281.59 179.829ZM1136.05 243.222C1112.21 254.814 1088.64 266.881 1065.38 279.412L1079.63 305.877C1056.98 318.082 1034.61 330.735 1012.53 343.824L1043.12 395.438C1064.79 382.593 1086.75 370.182 1108.98 358.218L1094.74 331.747C1116.98 319.785 1139.5 308.261 1162.28 297.185L1136.05 243.222ZM2678.08 183.6C2653.49 173.912 2628.67 164.719 2603.61 156.033L2593.79 184.362C2569.56 175.969 2545.11 168.056 2520.45 160.634L2503.16 218.088C2527.35 225.368 2551.33 233.137 2575.09 241.383L2584.92 213.057C2608.86 221.371 2632.58 230.163 2656.08 239.423L2678.08 183.6ZM996.277 318.499C973.491 332.02 951.016 345.995 928.865 360.413L945.271 385.62C923.716 399.649 902.468 414.105 881.537 428.976L916.287 477.888C936.831 463.292 957.691 449.109 978.854 435.352L962.461 410.136C983.639 396.369 1005.12 383.019 1026.9 370.099L996.277 318.499ZM2823.22 247.867C2799.52 236.174 2775.55 224.958 2751.32 214.23L2739.19 241.611C2715.73 231.224 2692.01 221.302 2668.06 211.856L2646.05 267.672C2669.55 276.941 2692.82 286.684 2715.84 296.888L2727.97 269.512C2751.12 279.776 2774.02 290.501 2796.67 301.676L2823.22 247.867ZM863.249 405.077C841.67 420.428 820.429 436.211 799.537 452.412L817.962 476.172C797.638 491.929 777.645 508.091 757.996 524.645L796.653 570.531C815.939 554.284 835.566 538.427 855.522 522.973L837.113 499.2C857.093 483.724 877.402 468.642 898.03 453.968L863.249 405.077ZM2962.53 323.907C2939.87 310.293 2916.91 297.136 2893.66 284.448L2879.32 310.718C2856.79 298.422 2833.99 286.571 2810.92 275.178L2784.35 328.974C2806.99 340.155 2829.37 351.792 2851.47 363.873L2865.83 337.611C2888.03 349.749 2909.97 362.329 2931.64 375.341L2962.53 323.907ZM737.83 502.335C717.593 519.408 697.72 536.889 678.222 554.763L698.521 576.906C679.566 594.275 660.967 612.025 642.737 630.143L685.033 672.7C702.923 654.919 721.181 637.505 739.792 620.469L719.51 598.31C738.163 581.229 757.171 564.519 776.521 548.193L737.83 502.335ZM3095.11 411.174C3073.63 395.734 3051.83 380.729 3029.72 366.172L3013.26 391.177C2991.81 377.056 2970.06 363.362 2948.02 350.104L2917.09 401.519C2938.72 414.53 2960.06 427.977 2981.11 441.847L2997.58 416.852C3018.72 430.78 3039.56 445.13 3060.09 459.891L3095.11 411.174ZM3220.06 509.038C3199.92 491.883 3179.43 475.141 3158.6 458.823L3140.12 482.413C3119.89 466.564 3099.34 451.12 3078.47 436.091L3043.41 484.783C3063.89 499.532 3084.06 514.694 3103.9 530.258L3122.39 506.682C3142.31 522.297 3161.9 538.311 3181.16 554.715L3220.06 509.038ZM620.827 609.594C602.071 628.264 583.703 647.316 565.735 666.734L587.755 687.109C570.296 705.969 553.217 725.184 536.531 744.743L582.177 783.685C598.552 764.49 615.319 745.636 632.465 727.135L610.461 706.743C627.652 688.183 645.221 669.971 663.156 652.118L620.827 609.594ZM513.038 726.088C495.884 746.229 479.141 766.723 462.823 787.558L486.41 806.032C470.561 826.259 455.116 846.815 440.087 867.688L488.779 902.747C503.527 882.263 518.69 862.095 534.254 842.254L510.681 823.761C526.295 803.847 542.311 784.253 558.715 764.994L513.038 726.088ZM3336.56 616.826C3317.89 598.07 3298.84 579.703 3279.42 561.735L3259.04 583.757C3240.18 566.299 3220.97 549.22 3201.41 532.535L3162.47 578.181C3181.66 594.557 3200.52 611.323 3219.02 628.469L3239.41 606.463C3257.97 623.653 3276.18 641.221 3294.04 659.156L3336.56 616.826ZM415.174 851.042C399.734 872.519 384.729 894.322 370.172 916.438L395.174 932.895C381.053 954.343 367.358 976.093 354.1 998.134L405.515 1029.06C418.526 1007.43 431.972 986.089 445.843 965.048L420.851 948.574C434.779 927.439 449.13 906.598 463.891 886.065L415.174 851.042ZM3443.82 733.83C3426.74 713.593 3409.26 693.72 3391.39 674.222L3369.25 694.523C3351.88 675.569 3334.13 656.971 3316.01 638.742L3273.45 681.037C3291.23 698.928 3308.65 717.185 3325.68 735.797L3347.85 715.513C3364.93 734.165 3381.64 753.171 3397.96 772.52L3443.82 733.83ZM327.907 983.622C314.293 1006.29 301.137 1029.25 288.449 1052.49L314.715 1066.83C302.418 1089.36 290.567 1112.16 279.173 1135.23L332.97 1161.8C344.151 1139.16 355.788 1116.79 367.868 1094.68L341.609 1080.33C353.748 1058.12 366.329 1036.18 379.341 1014.52L327.907 983.622ZM3541.08 859.249C3525.72 837.67 3509.94 816.429 3493.74 795.537L3469.98 813.964C3454.22 793.64 3438.06 773.648 3421.51 754L3375.62 792.658C3391.87 811.943 3407.73 831.57 3423.18 851.526L3446.96 833.116C3462.43 853.095 3477.51 873.403 3492.18 894.03L3541.08 859.249ZM3627.65 992.277C3614.13 969.491 3600.16 947.016 3585.74 924.865L3560.53 941.271C3546.5 919.718 3532.05 898.471 3517.18 877.541L3468.27 912.291C3482.86 932.836 3497.04 953.695 3510.8 974.858L3536.02 958.464C3549.79 979.641 3563.13 1001.12 3576.05 1022.9L3627.65 992.277ZM251.867 1122.93C240.174 1146.64 228.958 1170.61 218.23 1194.83L245.607 1206.96C235.221 1230.42 225.298 1254.14 215.852 1278.09L271.668 1300.11C280.937 1276.6 290.679 1253.34 300.884 1230.31L273.511 1218.18C283.776 1195.04 294.501 1172.13 305.676 1149.48L251.867 1122.93ZM187.6 1268.08C177.912 1292.66 168.72 1317.49 160.033 1342.54L188.358 1352.36C179.965 1376.59 172.052 1401.04 164.629 1425.7L222.083 1443C229.364 1418.81 237.133 1394.82 245.379 1371.06L217.056 1361.23C225.371 1337.3 234.163 1313.57 243.423 1290.07L187.6 1268.08ZM3702.93 1132.05C3691.34 1108.21 3679.27 1084.64 3666.74 1061.38L3640.27 1075.63C3628.07 1052.98 3615.42 1030.61 3602.33 1008.53L3550.72 1039.12C3563.56 1060.79 3575.97 1082.75 3587.94 1104.99L3614.41 1090.74C3626.37 1112.98 3637.89 1135.5 3648.97 1158.28L3702.93 1132.05ZM135.584 1418.1C127.982 1443.38 120.889 1468.87 114.318 1494.56L143.412 1502C137.071 1526.82 131.223 1551.83 125.877 1577.03L184.571 1589.48C189.818 1564.75 195.566 1540.2 201.803 1515.84L172.711 1508.39C179.001 1483.86 185.782 1459.52 193.043 1435.38L135.584 1418.1ZM3766.32 1277.59C3756.76 1252.86 3746.7 1228.39 3736.15 1204.19L3708.63 1216.17C3698.34 1192.57 3687.58 1169.21 3676.36 1146.12L3622.39 1172.34C3633.4 1194.99 3643.94 1217.9 3654.03 1241.07L3681.55 1229.08C3691.62 1252.22 3701.22 1275.61 3710.37 1299.24L3766.32 1277.59ZM96.252 1571.84C90.7817 1597.65 85.8334 1623.65 81.4181 1649.81L111.078 1654.82C106.82 1680.09 103.064 1705.53 99.8218 1731.12L159.346 1738.66C162.528 1713.54 166.22 1688.58 170.412 1663.79L140.754 1658.78C144.987 1633.78 149.722 1608.94 154.949 1584.28L96.252 1571.84ZM3817.38 1427.86C3809.89 1402.4 3801.9 1377.17 3793.41 1352.19L3765.04 1361.83C3756.75 1337.46 3747.98 1313.33 3738.74 1289.42L3682.78 1311.06C3691.85 1334.52 3700.45 1358.22 3708.57 1382.14L3736.95 1372.51C3745.04 1396.37 3752.67 1420.47 3759.81 1444.78L3817.38 1427.86ZM69.8382 1728.36C66.5327 1754.53 63.7585 1780.86 61.5264 1807.33L91.5169 1809.86C89.3649 1835.37 87.7209 1861.02 86.5948 1886.79L146.538 1889.41C147.642 1864.12 149.262 1838.97 151.385 1813.96L121.396 1811.41C123.544 1786.09 126.204 1760.91 129.366 1735.87L69.8382 1728.36ZM3855.78 1581.91C3850.43 1555.89 3844.56 1530.08 3838.17 1504.48L3809.14 1511.71C3802.9 1486.71 3796.17 1461.92 3788.95 1437.33L3731.38 1454.23C3738.46 1478.36 3745.06 1502.69 3751.17 1527.22L3780.21 1520C3786.29 1544.47 3791.9 1569.14 3797.01 1594L3855.78 1581.91ZM3881.31 1738.55C3878.12 1712.2 3874.4 1686.02 3870.17 1660.03L3840.65 1664.84C3836.5 1639.36 3831.84 1614.06 3826.69 1588.94L3767.91 1601C3772.97 1625.63 3777.53 1650.44 3781.59 1675.43L3811.1 1670.64C3815.14 1695.51 3818.69 1720.55 3821.74 1745.76L3881.31 1738.55ZM56.4895 1886.61C55.3627 1912.92 54.7707 1939.35 54.7238 1965.89L84.7767 1965.94C84.7472 1978.62 84.843 1991.33 85.0653 2004.07C85.2939 2017.17 85.6552 2030.23 86.1479 2043.26L146.105 2040.99C145.628 2028.37 145.278 2015.71 145.056 2003.02C144.835 1990.33 144.743 1977.67 144.779 1965.04L114.726 1964.95C114.785 1939.58 115.358 1914.32 116.435 1889.18L56.4895 1886.61ZM56.2021 2045.19C56.7185 2058.43 57.3705 2071.68 58.1594 2084.96C58.9484 2098.24 59.8706 2111.48 60.9246 2124.68L90.7719 2122.3C92.809 2147.99 95.3578 2173.53 98.4081 2198.91L157.98 2191.75C154.984 2166.83 152.488 2141.75 150.502 2116.51L120.651 2118.86C119.664 2106.41 118.798 2093.93 118.054 2081.4C117.289 2068.53 116.657 2055.68 116.157 2042.85L56.2021 2045.19ZM3891.99 1857.19C3891.2 1843.91 3890.28 1830.67 3889.23 1817.47L3859.38 1819.85C3857.34 1794.17 3854.79 1768.63 3851.74 1743.25L3792.17 1750.41C3795.16 1775.33 3797.66 1800.41 3799.65 1825.65L3829.5 1823.29C3830.49 1835.74 3831.36 1848.23 3832.1 1860.75C3832.86 1873.62 3833.5 1886.47 3834 1899.3L3893.95 1896.96C3893.43 1883.73 3892.78 1870.47 3891.99 1857.19ZM68.8464 2203.6C72.0359 2229.95 75.7533 2256.13 79.9872 2282.12L109.497 2277.31C113.647 2302.79 118.305 2328.1 123.46 2353.22L182.236 2341.16C177.181 2316.53 172.62 2291.71 168.563 2266.72L139.051 2271.51C135.013 2246.65 131.463 2221.6 128.412 2196.39L68.8464 2203.6ZM3893.66 2055.55C3894.79 2029.24 3895.38 2002.81 3895.43 1976.26L3865.37 1976.21C3865.4 1963.53 3865.31 1950.82 3865.08 1938.09C3864.86 1924.99 3864.49 1911.93 3864 1898.9L3804.04 1901.16C3804.52 1913.79 3804.87 1926.45 3805.09 1939.14C3805.31 1951.83 3805.41 1964.49 3805.37 1977.12L3835.43 1977.21C3835.37 2002.58 3834.8 2027.84 3833.72 2052.98L3893.66 2055.55ZM94.375 2360.24C99.7255 2386.26 105.598 2412.07 111.98 2437.68L141.009 2430.44C147.247 2455.44 153.981 2480.24 161.201 2504.83L218.771 2487.93C211.687 2463.8 205.086 2439.47 198.979 2414.93L169.948 2422.16C163.863 2397.69 158.258 2373.02 153.145 2348.15L94.375 2360.24ZM3880.32 2213.8C3883.62 2187.62 3886.39 2161.29 3888.63 2134.82L3858.63 2132.29C3860.78 2106.79 3862.43 2081.14 3863.55 2055.37L3803.61 2052.75C3802.51 2078.03 3800.89 2103.19 3798.76 2128.2L3828.76 2130.75C3826.61 2156.06 3823.95 2181.24 3820.79 2206.28L3880.32 2213.8ZM132.778 2514.29C140.26 2539.75 148.251 2564.98 156.74 2589.97L185.112 2580.33C193.399 2604.69 202.169 2628.83 211.41 2652.73L267.373 2631.1C258.303 2607.64 249.702 2583.94 241.581 2560.02L213.207 2569.65C205.114 2545.78 197.488 2521.69 190.343 2497.38L132.778 2514.29ZM3853.9 2370.31C3859.37 2344.5 3864.32 2318.5 3868.74 2292.34L3839.07 2287.33C3843.33 2262.06 3847.09 2236.63 3850.33 2211.04L3790.8 2203.5C3787.62 2228.61 3783.93 2253.57 3779.74 2278.37L3809.4 2283.38C3805.17 2308.38 3800.43 2333.21 3795.2 2357.88L3853.9 2370.31ZM3814.57 2524.05C3822.17 2498.77 3829.26 2473.28 3835.84 2447.6L3806.74 2440.15C3813.08 2415.33 3818.93 2390.32 3824.27 2365.13L3765.58 2352.68C3760.33 2377.41 3754.58 2401.96 3748.35 2426.32L3777.44 2433.77C3771.15 2458.29 3764.37 2482.63 3757.11 2506.78L3814.57 2524.05ZM183.829 2664.56C193.396 2689.29 203.457 2713.76 213.999 2737.97L241.519 2725.98C251.811 2749.59 262.57 2772.94 273.785 2796.03L327.756 2769.82C316.754 2747.17 306.206 2724.26 296.123 2701.09L268.6 2713.07C258.538 2689.94 248.929 2666.55 239.787 2642.92L183.829 2664.56ZM247.223 2810.1C258.814 2833.95 270.881 2857.51 283.412 2880.78L309.874 2866.52C322.079 2889.18 334.731 2911.55 347.82 2933.63L399.433 2903.03C386.589 2881.36 374.178 2859.41 362.214 2837.17L335.746 2851.41C323.785 2829.17 312.261 2806.66 301.185 2783.87L247.223 2810.1ZM3762.55 2674.08C3772.24 2649.49 3781.43 2624.67 3790.12 2599.61L3761.79 2589.79C3770.19 2565.56 3778.1 2541.11 3785.52 2516.45L3728.07 2499.16C3720.79 2523.35 3713.02 2547.33 3704.77 2571.1L3733.1 2580.93C3724.78 2604.86 3715.99 2628.58 3706.73 2652.08L3762.55 2674.08ZM322.499 2949.88C336.02 2972.66 349.996 2995.14 364.413 3017.29L389.617 3000.88C403.646 3022.44 418.101 3043.69 432.972 3064.62L481.884 3029.87C467.288 3009.32 453.105 2988.46 439.347 2967.3L414.135 2983.69C400.368 2962.51 387.019 2941.03 374.099 2919.26L322.499 2949.88ZM3698.29 2819.22C3709.98 2795.52 3721.2 2771.55 3731.92 2747.32L3704.54 2735.2C3714.93 2711.73 3724.85 2688.02 3734.3 2664.06L3678.48 2642.05C3669.21 2665.55 3659.47 2688.82 3649.27 2711.84L3676.64 2723.98C3666.38 2747.12 3655.65 2770.02 3644.48 2792.67L3698.29 2819.22ZM409.077 3082.9C424.428 3104.48 440.211 3125.72 456.412 3146.62L480.169 3128.19C495.926 3148.52 512.087 3168.51 528.64 3188.16L574.527 3149.5C558.28 3130.21 542.423 3110.59 526.969 3090.63L503.199 3109.04C487.723 3089.06 472.642 3068.75 457.968 3048.12L409.077 3082.9ZM3622.25 2958.53C3635.86 2935.87 3649.02 2912.91 3661.7 2889.66L3635.44 2875.32C3647.73 2852.8 3659.58 2829.99 3670.98 2806.93L3617.18 2780.36C3606 2802.99 3594.36 2825.37 3582.28 2847.48L3608.54 2861.83C3596.4 2884.04 3583.82 2905.98 3570.81 2927.64L3622.25 2958.53ZM506.335 3208.32C523.408 3228.56 540.889 3248.43 558.763 3267.93L580.903 3247.63C598.272 3266.59 616.021 3285.19 634.138 3303.42L676.695 3261.12C658.915 3243.23 641.5 3224.97 624.465 3206.36L602.309 3226.64C585.228 3207.99 568.518 3188.98 552.194 3169.63L506.335 3208.32ZM3534.98 3091.11C3550.42 3069.63 3565.42 3047.83 3579.98 3025.72L3554.98 3009.26C3569.1 2987.81 3582.79 2966.06 3596.05 2944.02L3544.63 2913.1C3531.62 2934.73 3518.18 2956.07 3504.31 2977.11L3529.3 2993.58C3515.37 3014.72 3501.02 3035.56 3486.26 3056.09L3534.98 3091.11ZM613.594 3325.33C632.264 3344.08 651.316 3362.45 670.734 3380.42L691.107 3358.4C709.966 3375.86 729.181 3392.94 748.739 3409.62L787.681 3363.98C768.486 3347.6 749.632 3330.83 731.131 3313.69L710.741 3335.69C692.182 3318.5 673.97 3300.93 656.118 3283L613.594 3325.33ZM3437.11 3216.06C3454.27 3195.92 3471.01 3175.43 3487.33 3154.59L3463.74 3136.12C3479.59 3115.9 3495.03 3095.34 3510.06 3074.47L3461.37 3039.41C3446.62 3059.89 3431.46 3080.06 3415.9 3099.9L3439.47 3118.4C3423.86 3138.31 3407.84 3157.9 3391.44 3177.16L3437.11 3216.06ZM730.089 3433.11C750.229 3450.27 770.723 3467.01 791.558 3483.33L810.03 3459.75C830.256 3475.59 850.811 3491.04 871.684 3506.07L906.742 3457.37C886.259 3442.63 866.09 3427.46 846.25 3411.9L827.759 3435.47C807.845 3419.86 788.253 3403.84 768.994 3387.44L730.089 3433.11ZM3329.33 3332.56C3348.08 3313.89 3366.45 3294.84 3384.42 3275.42L3362.4 3255.04C3379.86 3236.19 3396.93 3216.97 3413.62 3197.42L3367.97 3158.47C3351.6 3177.67 3334.83 3196.52 3317.68 3215.02L3339.69 3235.41C3322.5 3253.97 3304.93 3272.18 3287 3290.04L3329.33 3332.56ZM855.042 3530.98C876.519 3546.42 898.322 3561.42 920.438 3575.98L936.894 3550.98C958.34 3565.1 980.09 3578.8 1002.13 3592.05L1033.06 3540.64C1011.43 3527.63 990.085 3514.18 969.044 3500.31L952.571 3525.3C931.437 3511.37 910.597 3497.02 890.065 3482.26L855.042 3530.98ZM3212.32 3439.82C3232.56 3422.74 3252.43 3405.26 3271.93 3387.39L3251.63 3365.25C3270.59 3347.88 3289.18 3330.13 3307.41 3312.02L3265.12 3269.46C3247.23 3287.24 3228.97 3304.65 3210.36 3321.69L3230.64 3343.85C3211.99 3360.93 3192.98 3377.64 3173.63 3393.96L3212.32 3439.82ZM987.622 3618.25C1010.29 3631.86 1033.25 3645.02 1056.49 3657.7L1070.83 3631.44C1093.36 3643.74 1116.16 3655.59 1139.23 3666.98L1165.8 3613.18C1143.16 3602 1120.78 3590.37 1098.68 3578.29L1084.33 3604.54C1062.12 3592.4 1040.18 3579.82 1018.52 3566.81L987.622 3618.25ZM3086.9 3537.08C3108.48 3521.72 3129.72 3505.94 3150.62 3489.74L3132.19 3465.98C3152.51 3450.23 3172.51 3434.07 3192.15 3417.51L3153.5 3371.63C3134.21 3387.87 3114.58 3403.73 3094.63 3419.18L3113.04 3442.96C3093.06 3458.43 3072.75 3473.51 3052.12 3488.18L3086.9 3537.08ZM1126.93 3694.29C1150.64 3705.98 1174.61 3717.2 1198.83 3727.92L1210.96 3700.55C1234.42 3710.93 1258.14 3720.86 1282.09 3730.3L1304.1 3674.49C1280.6 3665.22 1257.33 3655.47 1234.31 3645.27L1222.18 3672.64C1199.03 3662.38 1176.13 3651.65 1153.48 3640.48L1126.93 3694.29ZM2953.88 3623.65C2976.66 3610.13 2999.14 3596.16 3021.29 3581.74L3004.88 3556.54C3026.44 3542.51 3047.68 3528.05 3068.61 3513.18L3033.86 3464.27C3013.32 3478.87 2992.46 3493.05 2971.3 3506.81L2987.69 3532.02C2966.51 3545.79 2945.03 3559.14 2923.26 3572.05L2953.88 3623.65ZM1272.08 3758.55C1296.66 3768.24 1321.49 3777.43 1346.54 3786.12L1356.36 3757.8C1380.59 3766.19 1405.04 3774.1 1429.7 3781.52L1446.99 3724.07C1422.8 3716.79 1398.82 3709.02 1375.06 3700.77L1365.23 3729.1C1341.29 3720.78 1317.57 3711.99 1294.07 3702.73L1272.08 3758.55ZM2814.1 3698.93C2837.95 3687.34 2861.51 3675.27 2884.78 3662.74L2870.52 3636.28C2893.17 3624.07 2915.54 3611.42 2937.62 3598.33L2907.03 3546.72C2885.36 3559.56 2863.4 3571.98 2841.17 3583.94L2855.41 3610.41C2833.17 3622.37 2810.66 3633.89 2787.87 3644.97L2814.1 3698.93ZM1422.1 3810.57C1447.38 3818.17 1472.87 3825.26 1498.56 3831.84L1506 3802.74C1530.82 3809.08 1555.83 3814.93 1581.02 3820.28L1593.48 3761.58C1568.74 3756.34 1544.19 3750.59 1519.84 3744.35L1512.39 3773.44C1487.86 3767.15 1463.52 3760.37 1439.38 3753.11L1422.1 3810.57ZM2668.57 3762.32C2693.29 3752.76 2717.77 3742.7 2741.97 3732.15L2729.98 3704.63C2753.59 3694.34 2776.94 3683.58 2800.03 3672.37L2773.82 3618.4C2751.17 3629.4 2728.25 3639.95 2705.09 3650.03L2717.07 3677.55C2693.93 3687.62 2670.55 3697.22 2646.92 3706.37L2668.57 3762.32ZM1575.84 3849.9C1601.65 3855.37 1627.65 3860.32 1653.81 3864.74L1658.82 3835.08C1684.09 3839.33 1709.52 3843.09 1735.12 3846.33L1742.66 3786.81C1717.54 3783.63 1692.58 3779.93 1667.79 3775.74L1662.77 3805.4C1637.78 3801.17 1612.94 3796.43 1588.28 3791.2L1575.84 3849.9ZM2518.3 3813.38C2543.75 3805.89 2568.98 3797.9 2593.97 3789.41L2584.33 3761.04C2608.69 3752.75 2632.83 3743.98 2656.73 3734.74L2635.09 3678.78C2611.63 3687.85 2587.94 3696.45 2564.01 3704.57L2573.65 3732.95C2549.78 3741.04 2525.69 3748.67 2501.38 3755.81L2518.3 3813.38ZM1732.36 3876.31C1758.53 3879.62 1784.86 3882.39 1811.33 3884.63L1813.86 3854.64C1839.37 3856.79 1865.01 3858.43 1890.79 3859.56L1893.41 3799.62C1868.12 3798.51 1842.96 3796.89 1817.95 3794.77L1815.41 3824.76C1790.09 3822.61 1764.91 3819.95 1739.87 3816.79L1732.36 3876.31ZM2364.24 3851.78C2390.26 3846.43 2416.07 3840.56 2441.68 3834.17L2434.44 3805.14C2459.44 3798.91 2484.24 3792.17 2508.83 3784.95L2491.92 3727.38C2467.8 3734.47 2443.46 3741.07 2418.93 3747.17L2426.16 3776.21C2401.69 3782.29 2377.02 3787.9 2352.15 3793.01L2364.24 3851.78ZM1890.61 3889.66C1916.92 3890.79 1943.35 3891.38 1969.89 3891.43L1969.94 3861.38C1982.62 3861.41 1995.33 3861.31 2008.06 3861.09C2021.16 3860.86 2034.23 3860.5 2047.26 3860.01L2044.99 3800.05C2032.37 3800.53 2019.71 3800.88 2007.02 3801.1C1994.33 3801.32 1981.67 3801.41 1969.03 3801.37L1968.95 3831.43C1943.58 3831.37 1918.32 3830.8 1893.18 3829.72L1890.61 3889.66ZM2207.6 3877.31C2233.95 3874.12 2260.13 3870.4 2286.12 3866.17L2281.31 3836.66C2306.79 3832.51 2332.1 3827.85 2357.22 3822.69L2345.16 3763.92C2320.53 3768.97 2295.71 3773.53 2270.72 3777.59L2275.51 3807.1C2250.65 3811.14 2225.6 3814.69 2200.39 3817.74L2207.6 3877.31ZM2049.19 3889.95C2062.43 3889.43 2075.68 3888.78 2088.96 3887.99C2102.24 3887.2 2115.48 3886.28 2128.68 3885.23L2126.3 3855.38C2151.99 3853.34 2177.53 3850.8 2202.91 3847.75L2195.75 3788.17C2170.82 3791.17 2145.74 3793.67 2120.51 3795.65L2122.86 3825.5C2110.41 3826.49 2097.93 3827.36 2085.4 3828.1C2072.53 3828.86 2059.68 3829.5 2046.85 3830L2049.19 3889.95Z" fill="#D9E2ED"/>
</g>
<defs>
<filter id="filter0_d_1693_546" x="0.623756" y="0.623634" width="3948.91" height="3948.91" filterUnits="userSpaceOnUse" color-interpolation-filters="sRGB">
<feFlood flood-opacity="0" result="BackgroundImageFix"/>
<feColorMatrix in="SourceAlpha" type="matrix" values="0 0 0 0 0 0 0 0 0 0 0 0 0 0 0 0 0 0 127 0" result="hardAlpha"/>
<feOffset dy="4"/>
<feGaussianBlur stdDeviation="27.05"/>
<feComposite in2="hardAlpha" operator="out"/>
<feColorMatrix type="matrix" values="0 0 0 0 0.22 0 0 0 0 0 0 0 0 0 0 0 0 0 0.05 0"/>
<feBlend mode="normal" in2="BackgroundImageFix" result="effect1_dropShadow_1693_546"/>
<feBlend mode="normal" in="SourceGraphic" in2="effect1_dropShadow_1693_546" result="shape"/>
</filter>
</defs>
</svg>
