<svg width="3594" height="3594" viewBox="0 0 3594 3594" fill="none" xmlns="http://www.w3.org/2000/svg">
<path fill-rule="evenodd" clip-rule="evenodd" d="M1795.51 0.578823C1790.48 0.583215 1785.45 0.608294 1780.43 0.653981L1780.54 13.154C1775.68 13.1999 1770.81 13.2653 1765.94 13.3503C1760.94 13.4376 1755.95 13.5453 1750.96 13.6733L1751.48 33.6667C1756.41 33.5401 1761.35 33.4336 1766.29 33.3473C1771.23 33.261 1776.17 33.1952 1781.1 33.1496L1781.03 25.6495C1785.86 25.6066 1790.69 25.583 1795.53 25.5788C1800.49 25.5745 1805.45 25.5906 1810.4 25.627L1810.59 0.627651C1805.57 0.590735 1800.54 0.574432 1795.51 0.578823ZM1870.62 2.05516C1860.65 1.65401 1850.67 1.33405 1840.66 1.09592L1840.37 13.5752C1830.53 13.3434 1820.67 13.1915 1810.79 13.1203L1810.65 33.1197C1820.47 33.1907 1830.29 33.3423 1840.08 33.574L1840.25 26.0933C1850.06 26.3277 1859.85 26.6418 1869.61 27.0349L1870.62 2.05516ZM1750.35 1.17476C1740.35 1.43036 1730.36 1.76775 1720.4 2.18629L1720.92 14.6935C1711.05 15.1104 1701.21 15.6073 1691.38 16.1834L1692.55 36.1491C1702.33 35.5758 1712.13 35.0819 1721.95 34.668L1721.63 27.1565C1731.4 26.7473 1741.18 26.4171 1750.99 26.1666L1750.35 1.17476ZM1930.6 5.46422C1920.62 4.73068 1910.61 4.07876 1900.58 3.50911L1899.88 15.9604C1890.05 15.4035 1880.2 14.9265 1870.33 14.5299L1869.53 34.5138C1879.38 34.9099 1889.22 35.3871 1899.03 35.9448L1899.46 28.4855C1909.25 29.0434 1919.02 29.6807 1928.77 30.397L1930.6 5.46422ZM1690.44 3.69256C1680.41 4.27971 1670.4 4.94909 1660.42 5.70006L1661.36 18.1944C1651.51 18.9368 1641.69 19.7589 1631.88 20.66L1633.71 40.576C1643.5 39.6761 1653.32 38.8559 1663.15 38.1161L1662.59 30.6077C1672.34 29.876 1682.11 29.2231 1691.9 28.6498L1690.44 3.69256ZM1990.33 10.8509C1980.41 9.78915 1970.46 8.80832 1960.48 7.90902L1959.37 20.3238C1949.56 19.4403 1939.73 18.6363 1929.88 17.9125L1928.42 37.8588C1938.22 38.5794 1948.01 39.3804 1957.77 40.2612L1958.44 32.8262C1968.21 33.7081 1977.95 34.6693 1987.68 35.7091L1990.33 10.8509ZM1630.54 8.19702C1620.57 9.11373 1610.62 10.1119 1600.7 11.1909L1602.05 23.6533C1592.23 24.7215 1582.44 25.8691 1572.67 27.0955L1575.16 46.9397C1584.89 45.7187 1594.64 44.5767 1604.42 43.5142L1603.6 36.0226C1613.32 34.9669 1623.07 33.9899 1632.83 33.092L1630.54 8.19702ZM2049.95 18.2357C2040.06 16.843 2030.15 15.5308 2020.22 14.2998L2018.68 26.6686C2008.91 25.4578 1999.12 24.3263 1989.3 23.2746L1987.17 43.1609C1996.94 44.2078 2006.69 45.3347 2016.42 46.541L2017.34 39.1344C2027.07 40.3413 2036.78 41.6271 2046.46 42.9912L2049.95 18.2357ZM1570.82 14.6921C1560.89 15.9404 1550.98 17.2699 1541.1 18.6798L1542.87 31.0918C1533.09 32.4866 1523.34 33.9604 1513.62 35.5126L1516.77 55.2625C1526.45 53.7175 1536.15 52.2509 1545.89 50.8635L1544.82 43.4014C1554.5 42.0215 1564.21 40.7198 1573.94 39.497L1570.82 14.6921ZM2109.28 27.6109C2099.42 25.8827 2089.53 24.2349 2079.61 22.6684L2077.67 34.9807C2067.94 33.4434 2058.19 31.9849 2048.41 30.6058L2045.62 50.4098C2055.38 51.7864 2065.11 53.243 2074.82 54.779L2075.99 47.4056C2085.67 48.9374 2095.33 50.5476 2104.97 52.2356L2109.28 27.6109ZM1511.44 23.1643C1501.53 24.7482 1491.64 26.4131 1481.78 28.1585L1483.97 40.5024C1474.24 42.2234 1464.55 44.023 1454.88 45.9005L1458.69 65.5337C1468.34 63.6598 1478.02 61.8643 1487.73 60.1479L1486.41 52.7272C1496.04 51.0238 1505.7 49.3983 1515.38 47.8512L1511.44 23.1643ZM2168.19 38.9561C2158.42 36.903 2148.62 34.9294 2138.78 33.036L2136.42 45.2805C2126.75 43.417 2117.05 41.6318 2107.33 39.9255L2103.87 59.6246C2113.55 61.3233 2123.21 63.1012 2132.84 64.9576L2134.25 57.6231C2143.88 59.4784 2153.48 61.4117 2163.05 63.4222L2168.19 38.9561ZM1452.29 33.6351C1442.46 35.5457 1432.66 37.5364 1422.89 39.6066L1425.49 51.8659C1415.83 53.9116 1406.2 56.0354 1396.59 58.2365L1401.06 77.7308C1410.62 75.5395 1420.21 73.4258 1429.83 71.3902L1428.27 64.0219C1437.84 61.9958 1447.43 60.0468 1457.06 58.1758L1452.29 33.6351ZM2226.76 52.2904C2217.06 49.9095 2207.33 47.6074 2197.57 45.3847L2194.8 57.5492C2185.19 55.361 2175.56 53.2505 2165.9 51.2183L2161.78 70.7901C2171.4 72.8131 2180.99 74.9146 2190.55 77.0939L2192.21 69.805C2201.77 71.9828 2211.3 74.238 2220.8 76.5698L2226.76 52.2904ZM1393.53 46.0864C1383.77 48.3261 1374.04 50.6452 1364.35 53.043L1367.35 65.2018C1357.77 67.5711 1348.21 70.0177 1338.69 72.5409L1343.81 91.8737C1353.29 89.3621 1362.8 86.9272 1372.34 84.5698L1370.54 77.2643C1380.04 74.917 1389.56 72.6462 1399.12 70.4528L1393.53 46.0864ZM1335.28 60.4915C1325.58 63.0632 1315.92 65.714 1306.29 68.443L1309.7 80.4864C1300.2 83.1768 1290.73 85.9438 1281.3 88.7867L1287.07 107.936C1296.48 105.1 1305.92 102.341 1315.4 99.6587L1313.35 92.4252C1322.76 89.7594 1332.21 87.1694 1341.69 84.656L1335.28 60.4915ZM2284.85 67.5891C2275.21 64.8769 2265.54 62.243 2255.84 59.6882L2252.66 71.7599C2243.14 69.2495 2233.58 66.816 2223.99 64.4602L2219.22 83.8825C2228.78 86.2325 2238.32 88.6606 2247.82 91.1662L2249.73 83.9301C2259.21 86.4284 2268.66 89.0032 2278.07 91.654L2284.85 67.5891ZM1277.49 76.8644C1267.9 79.7564 1258.35 82.7265 1248.83 85.7737L1252.64 97.6877C1243.24 100.696 1233.87 103.78 1224.54 106.939L1230.95 125.884C1240.25 122.737 1249.58 119.666 1258.94 116.671L1256.65 109.519C1265.97 106.537 1275.33 103.63 1284.71 100.799L1277.49 76.8644ZM2342.33 84.8196C2332.81 81.789 2323.25 78.8356 2313.66 75.9603L2310.07 87.9258C2300.63 85.0954 2291.16 82.3413 2281.66 79.6641L2276.23 98.9146C2285.7 101.581 2295.13 104.324 2304.53 107.144L2306.68 99.969C2316.07 102.785 2325.43 105.676 2334.75 108.643L2342.33 84.8196ZM1220.28 95.177C1210.8 98.3887 1201.36 101.677 1191.95 105.042L1196.16 116.813C1186.87 120.136 1177.61 123.534 1168.39 127.007L1175.43 145.724C1184.61 142.268 1193.83 138.886 1203.08 135.579L1200.56 128.515C1209.77 125.221 1219.02 122 1228.31 118.855L1220.28 95.177ZM2399.24 103.989C2389.83 100.64 2380.38 97.3683 2370.9 94.1731L2366.9 106.019C2357.57 102.872 2348.19 99.8 2338.79 96.8044L2332.72 115.861C2342.08 118.843 2351.41 121.901 2360.71 125.035L2363.1 117.929C2372.39 121.059 2381.65 124.264 2390.87 127.543L2399.24 103.989ZM1163.77 115.39C1154.39 118.924 1145.05 122.535 1135.74 126.22L1140.34 137.836C1131.17 141.47 1122.03 145.178 1112.93 148.959L1120.6 167.428C1129.67 163.659 1138.79 159.963 1147.94 156.341L1145.18 149.373C1154.28 145.77 1163.41 142.241 1172.58 138.785L1163.77 115.39ZM2455.49 125.069C2446.18 121.4 2436.83 117.806 2427.45 114.288L2423.06 126C2413.83 122.54 2404.56 119.155 2395.27 115.844L2388.56 134.686C2397.83 137.986 2407.06 141.362 2416.26 144.813L2418.9 137.784C2428.08 141.225 2437.22 144.74 2446.32 148.328L2455.49 125.069ZM1107.95 137.503C1098.7 141.348 1089.49 145.268 1080.31 149.263L1085.3 160.711C1076.25 164.651 1067.24 168.664 1058.27 172.749L1066.56 190.95C1075.5 186.88 1084.48 182.882 1093.49 178.957L1090.51 172.092C1099.48 168.185 1108.49 164.35 1117.54 160.588L1107.95 137.503ZM2510.96 148.015C2501.78 144.036 2492.56 140.132 2483.31 136.303L2478.53 147.867C2469.42 144.099 2460.27 140.404 2451.09 136.783L2443.75 155.388C2452.9 158.996 2462.02 162.679 2471.09 166.435L2473.96 159.492C2483.02 163.239 2492.04 167.06 2501.02 170.952L2510.96 148.015ZM1052.88 161.49C1043.77 165.639 1034.71 169.863 1025.68 174.159L1031.05 185.428C1022.14 189.67 1013.27 193.984 1004.44 198.368L1013.34 216.28C1022.12 211.916 1030.95 207.622 1039.83 203.4L1036.61 196.645C1045.45 192.438 1054.33 188.303 1063.24 184.239L1052.88 161.49ZM2565.64 172.816C2556.61 168.535 2547.53 164.328 2538.42 160.194L2533.25 171.596C2524.27 167.523 2515.26 163.523 2506.2 159.596L2498.24 177.944C2507.26 181.854 2516.23 185.836 2525.17 189.892L2528.28 183.044C2537.2 187.093 2546.08 191.215 2554.93 195.407L2565.64 172.816ZM998.674 187.298C989.704 191.756 980.776 196.286 971.892 200.888L977.63 211.967C968.868 216.505 960.148 221.114 951.472 225.792L960.965 243.396C969.612 238.733 978.303 234.14 987.036 229.618L983.599 222.979C992.291 218.478 1001.02 214.047 1009.8 209.687L998.674 187.298ZM2619.47 199.451C2610.58 194.865 2601.64 190.35 2592.67 185.908L2587.11 197.134C2578.28 192.762 2569.4 188.462 2560.49 184.233L2551.92 202.304C2560.8 206.518 2569.65 210.805 2578.45 215.163L2581.79 208.42C2590.57 212.766 2599.31 217.183 2608.01 221.67L2619.47 199.451ZM945.369 214.911C936.552 219.666 927.78 224.494 919.053 229.392L925.158 240.269C916.553 245.098 907.993 249.997 899.479 254.963L909.555 272.239C918.043 267.288 926.577 262.406 935.155 257.594L931.498 251.076C940.035 246.286 948.615 241.565 957.238 236.913L945.369 214.911ZM2672.36 227.863C2663.63 222.98 2654.85 218.168 2646.02 213.427L2640.09 224.463C2631.41 219.798 2622.68 215.203 2613.91 210.678L2604.74 228.451C2613.48 232.962 2622.18 237.543 2630.84 242.195L2634.4 235.564C2643.03 240.202 2651.62 244.909 2660.16 249.685L2672.36 227.863ZM892.991 244.308C884.349 249.35 875.753 254.463 867.204 259.645L873.669 270.31C865.232 275.424 856.841 280.606 848.496 285.854L859.145 302.784C867.454 297.557 875.81 292.398 884.212 287.307L880.34 280.917C888.711 275.844 897.128 270.839 905.59 265.901L892.991 244.308ZM2724.26 258.025C2715.7 252.858 2707.1 247.761 2698.45 242.733L2692.15 253.566C2683.63 248.613 2675.06 243.728 2666.45 238.913L2656.69 256.369C2665.27 261.164 2673.8 266.028 2682.28 270.961L2686.07 264.453C2694.54 269.376 2702.96 274.368 2711.34 279.427L2724.26 258.025ZM841.647 275.429C833.173 280.761 824.746 286.162 816.368 291.63L823.186 302.074C814.925 307.467 806.712 312.926 798.547 318.45L809.756 335.015C817.892 329.509 826.077 324.069 834.31 318.697L830.227 312.439C838.424 307.089 846.669 301.806 854.961 296.589L841.647 275.429ZM2775.15 289.922C2766.77 284.468 2758.33 279.082 2749.85 273.764L2743.19 284.38C2734.84 279.145 2726.44 273.977 2718 268.878L2707.66 285.998C2716.07 291.08 2724.44 296.231 2732.77 301.449L2736.77 295.07C2745.07 300.274 2753.32 305.544 2761.53 310.88L2775.15 289.922ZM791.381 308.24C783.086 313.854 774.84 319.536 766.645 325.284L773.808 335.496C765.732 341.161 757.706 346.89 749.73 352.684L761.485 368.866C769.437 363.088 777.44 357.376 785.493 351.729L781.202 345.61C789.217 339.99 797.281 334.434 805.393 328.944L791.381 308.24ZM2824.94 323.489C2816.73 317.755 2808.48 312.088 2800.17 306.488L2793.17 316.875C2784.99 311.364 2776.77 305.919 2768.5 300.541L2757.6 317.306C2765.84 322.669 2774.04 328.099 2782.19 333.595L2786.4 327.354C2794.52 332.831 2802.59 338.374 2810.62 343.981L2824.94 323.489ZM742.211 342.728C734.115 348.61 726.071 354.558 718.079 360.57L725.579 370.54C717.698 376.47 709.867 382.464 702.088 388.521L714.375 404.302C722.125 398.268 729.926 392.297 737.778 386.39L733.284 380.416C741.108 374.531 748.982 368.71 756.906 362.953L742.211 342.728ZM2873.56 358.69C2865.56 352.691 2857.51 346.758 2849.4 340.89L2842.06 351.035C2834.07 345.255 2826.04 339.539 2817.95 333.889L2806.49 350.282C2814.55 355.911 2822.55 361.605 2830.51 367.365L2834.92 361.27C2842.85 367.014 2850.74 372.822 2858.57 378.694L2873.56 358.69ZM694.23 378.825C686.333 384.974 678.489 391.188 670.698 397.466L678.529 407.184C670.85 413.373 663.223 419.624 655.65 425.936L668.456 441.299C676.003 435.008 683.604 428.779 691.257 422.613L686.564 416.788C694.188 410.646 701.864 404.567 709.59 398.549L694.23 378.825ZM2921.01 395.503C2913.21 389.239 2905.35 383.039 2897.44 376.903L2889.77 386.795C2881.98 380.752 2874.14 374.772 2866.25 368.856L2854.25 384.858C2862.11 390.754 2869.93 396.714 2877.69 402.738L2882.3 396.796C2890.04 402.801 2897.72 408.868 2905.36 414.997L2921.01 395.503ZM647.483 416.494C639.793 422.903 632.158 429.376 624.579 435.911L632.731 445.367C625.263 451.808 617.848 458.309 610.489 464.869L623.798 479.798C631.134 473.258 638.525 466.778 645.971 460.359L641.083 454.69C648.499 448.298 655.968 441.967 663.49 435.697L647.483 416.494ZM2967.2 433.868C2959.6 427.346 2951.96 420.887 2944.26 414.49L2936.26 424.118C2928.68 417.819 2921.04 411.582 2913.35 405.407L2900.83 421.002C2908.49 427.157 2916.1 433.375 2923.66 439.655L2928.47 433.874C2936 440.132 2943.48 446.451 2950.9 452.831L2967.2 433.868ZM602.005 455.703C594.536 462.363 587.122 469.084 579.765 475.866L588.231 485.05C580.981 491.734 573.787 498.478 566.649 505.28L580.447 519.758C587.56 512.979 594.73 506.259 601.956 499.598L596.879 494.091C604.079 487.456 611.333 480.88 618.642 474.363L602.005 455.703ZM3012.08 473.744C3004.71 466.975 2997.28 460.267 2989.8 453.62L2981.49 462.972C2974.12 456.424 2966.7 449.937 2959.22 443.511L2946.18 458.681C2953.64 465.085 2961.04 471.551 2968.38 478.077L2973.37 472.463C2980.69 478.968 2987.96 485.532 2995.17 492.155L3012.08 473.744ZM557.859 496.398C550.615 503.303 543.428 510.267 536.299 517.29L545.07 526.192C538.046 533.113 531.08 540.092 524.172 547.128L538.443 561.14C545.328 554.128 552.271 547.173 559.272 540.275L554.011 534.935C560.987 528.064 568.019 521.251 575.107 514.496L557.859 496.398ZM3055.62 515.093C3048.48 508.082 3041.28 501.13 3034.02 494.238L3025.41 503.305C3018.26 496.516 3011.05 489.786 3003.79 483.115L2990.26 497.843C2997.5 504.492 3004.68 511.2 3011.81 517.968L3016.97 512.527C3024.07 519.271 3031.12 526.072 3038.1 532.932L3055.62 515.093ZM515.09 538.537C508.079 545.677 501.127 552.876 494.236 560.133L503.301 568.743C496.512 575.893 489.781 583.099 483.11 590.361L497.839 603.892C504.487 596.654 511.196 589.472 517.964 582.347L512.524 577.18C519.267 570.081 526.069 563.038 532.929 556.051L515.09 538.537ZM3097.76 557.862C3090.85 550.617 3083.89 543.431 3076.86 536.302L3067.96 545.073C3061.04 538.05 3054.06 531.084 3047.03 524.177L3033.01 538.447C3040.03 545.332 3046.98 552.276 3053.88 559.277L3059.22 554.015C3066.09 560.99 3072.9 568.022 3079.66 575.11L3097.76 557.862ZM473.741 582.074C466.972 589.443 460.264 596.869 453.617 604.35L462.968 612.658C456.42 620.03 449.933 627.456 443.506 634.935L458.676 647.969C465.081 640.515 471.547 633.115 478.073 625.769L472.46 620.782C478.965 613.462 485.529 606.197 492.152 598.987L473.741 582.074ZM3138.45 602.008C3131.79 594.538 3125.07 587.125 3118.29 579.768L3109.1 588.234C3102.42 580.985 3095.67 573.791 3088.87 566.654L3074.39 580.451C3081.17 587.565 3087.89 594.734 3094.55 601.961L3100.06 596.883C3106.7 604.082 3113.27 611.336 3119.79 618.645L3138.45 602.008ZM433.865 626.958C427.343 634.549 420.884 642.195 414.487 649.896L424.114 657.892C417.815 665.477 411.578 673.114 405.403 680.804L420.997 693.326C427.152 685.661 433.37 678.048 439.65 670.488L433.87 665.687C440.129 658.155 446.448 650.675 452.828 643.249L433.865 626.958ZM3177.66 647.486C3171.25 639.796 3164.78 632.161 3158.24 624.581L3148.79 632.735C3142.34 625.267 3135.84 617.852 3129.28 610.493L3114.35 623.802C3120.89 631.138 3127.37 638.53 3133.79 645.975L3139.46 641.087C3145.86 648.503 3152.19 655.971 3158.46 663.493L3177.66 647.486ZM395.5 673.145C389.236 680.946 383.036 688.801 376.9 696.709L386.791 704.384C380.748 712.173 374.768 720.014 368.852 727.905L384.854 739.902C390.75 732.038 396.71 724.225 402.733 716.462L396.793 711.853C402.798 704.116 408.865 696.431 414.994 688.797L395.5 673.145ZM3215.33 694.233C3209.18 686.336 3202.96 678.492 3196.69 670.701L3186.97 678.533C3180.78 670.854 3174.53 663.227 3168.22 655.655L3152.85 668.46C3159.14 676.007 3165.37 683.608 3171.54 691.261L3177.37 686.568C3183.51 694.191 3189.59 701.867 3195.6 709.593L3215.33 694.233ZM358.687 720.589C352.688 728.592 346.755 736.647 340.887 744.752L351.031 752.096C345.251 760.082 339.535 768.117 333.884 776.202L350.277 787.659C355.906 779.605 361.601 771.601 367.361 763.645L361.267 759.234C367.011 751.301 372.82 743.417 378.691 735.584L358.687 720.589ZM3251.43 742.213C3245.54 734.118 3239.6 726.074 3233.58 718.081L3223.61 725.583C3217.68 717.701 3211.69 709.871 3205.63 702.093L3189.85 714.38C3195.89 722.129 3201.86 729.93 3207.76 737.783L3213.74 733.288C3219.62 741.111 3225.44 748.985 3231.2 756.908L3251.43 742.213ZM323.486 769.217C317.752 777.422 312.085 785.678 306.485 793.982L316.871 800.985C311.36 809.159 305.915 817.381 300.536 825.65L317.302 836.555C322.665 828.31 328.094 820.112 333.59 811.963L327.351 807.755C332.828 799.634 338.371 791.561 343.978 783.537L323.486 769.217ZM3285.91 791.383C3280.3 783.089 3274.62 774.843 3268.87 766.648L3258.66 773.811C3252.99 765.736 3247.26 757.71 3241.47 749.734L3225.29 761.489C3231.06 769.442 3236.78 777.445 3242.42 785.497L3248.54 781.206C3254.16 789.221 3259.72 797.284 3265.21 805.396L3285.91 791.383ZM289.919 818.999C284.465 827.386 279.079 835.822 273.762 844.306L284.376 850.959C279.141 859.312 273.973 867.711 268.873 876.155L285.994 886.494C291.076 878.079 296.226 869.709 301.445 861.385L295.067 857.387C300.271 849.087 305.541 840.834 310.878 832.628L289.919 818.999ZM3318.72 841.65C3313.39 833.175 3307.99 824.749 3302.52 816.371L3292.08 823.189C3286.69 814.928 3281.23 806.716 3275.7 798.552L3259.14 809.76C3264.64 817.896 3270.08 826.081 3275.46 834.314L3281.71 830.23C3287.06 838.428 3292.35 846.672 3297.56 854.963L3318.72 841.65ZM258.022 869.891C252.855 878.449 247.758 887.053 242.731 895.704L253.562 901.998C248.608 910.521 243.724 919.089 238.909 927.7L256.365 937.461C261.16 928.887 266.024 920.356 270.957 911.87L264.45 908.087C269.373 899.617 274.365 891.192 279.424 882.812L258.022 869.891ZM3349.85 892.994C3344.8 884.352 3339.69 875.756 3334.51 867.207L3323.84 873.672C3318.73 865.235 3313.55 856.845 3308.3 848.501L3291.37 859.149C3296.6 867.458 3301.75 875.814 3306.85 884.216L3313.24 880.343C3318.31 888.715 3323.32 897.132 3328.25 905.593L3349.85 892.994ZM227.86 921.792C222.977 930.528 218.165 939.308 213.424 948.133L224.459 954.061C219.794 962.744 215.198 971.471 210.674 980.239L228.447 989.41C232.957 980.669 237.539 971.971 242.19 963.315L235.561 959.753C240.199 951.122 244.906 942.534 249.682 933.99L227.86 921.792ZM3379.24 945.372C3374.49 936.555 3369.66 927.783 3364.76 919.056L3353.88 925.161C3349.05 916.557 3344.16 907.997 3339.19 899.483L3321.91 909.56C3326.86 918.048 3331.75 926.581 3336.56 935.159L3343.08 931.502C3347.87 940.038 3352.59 948.618 3357.24 957.241L3379.24 945.372ZM199.449 974.68C194.862 983.573 190.347 992.509 185.905 1001.49L197.129 1007.04C192.758 1015.87 188.457 1024.75 184.229 1033.67L202.3 1042.24C206.514 1033.35 210.801 1024.5 215.159 1015.7L208.417 1012.36C212.763 1003.58 217.18 994.839 221.667 986.141L199.449 974.68ZM3406.85 998.677C3402.4 989.707 3397.87 980.779 3393.26 971.894L3382.19 977.634C3377.65 968.872 3373.04 960.152 3368.36 951.477L3350.76 960.969C3355.42 969.616 3360.01 978.307 3364.53 987.041L3371.17 983.603C3375.68 992.294 3380.11 1001.03 3384.47 1009.8L3406.85 998.677ZM172.813 1028.52C168.533 1037.55 164.325 1046.62 160.191 1055.73L171.591 1060.9C167.519 1069.88 163.519 1078.9 159.591 1087.95L177.939 1095.91C181.849 1086.9 185.832 1077.92 189.887 1068.99L183.041 1065.88C187.091 1056.95 191.212 1048.07 195.404 1039.23L172.813 1028.52ZM3432.66 1052.88C3428.51 1043.77 3424.29 1034.71 3419.99 1025.68L3408.72 1031.05C3404.48 1022.14 3400.17 1013.27 3395.79 1004.44L3377.87 1013.34C3382.24 1022.13 3386.53 1030.96 3390.75 1039.83L3397.51 1036.61C3401.72 1045.45 3405.85 1054.33 3409.91 1063.25L3432.66 1052.88ZM148.012 1083.19C144.034 1092.37 140.129 1101.59 136.3 1110.84L147.863 1115.63C144.094 1124.73 140.399 1133.88 136.778 1143.06L155.384 1150.4C158.992 1141.25 162.674 1132.14 166.43 1123.06L159.489 1120.19C163.236 1111.13 167.057 1102.12 170.949 1093.14L148.012 1083.19ZM3456.65 1107.95C3452.81 1098.7 3448.89 1089.49 3444.89 1080.32L3433.44 1085.3C3429.5 1076.26 3425.49 1067.25 3421.4 1058.28L3403.2 1066.57C3407.27 1075.5 3411.27 1084.48 3415.2 1093.5L3422.06 1090.51C3425.97 1099.48 3429.8 1108.5 3433.57 1117.54L3456.65 1107.95ZM125.066 1138.66C121.397 1147.97 117.803 1157.32 114.285 1166.71L125.995 1171.1C122.536 1180.32 119.15 1189.59 115.84 1198.89L134.682 1205.6C137.982 1196.32 141.358 1187.09 144.809 1177.89L137.781 1175.25C141.222 1166.08 144.737 1156.93 148.325 1147.83L125.066 1138.66ZM3478.76 1163.77C3475.23 1154.39 3471.62 1145.05 3467.93 1135.75L3456.32 1140.35C3452.68 1131.17 3448.97 1122.03 3445.19 1112.93L3426.72 1120.6C3430.49 1129.68 3434.19 1138.79 3437.81 1147.94L3444.78 1145.18C3448.38 1154.28 3451.91 1163.42 3455.37 1172.59L3478.76 1163.77ZM103.986 1194.91C100.638 1204.32 97.3654 1213.77 94.1703 1223.26L106.014 1227.25C102.867 1236.59 99.7957 1245.96 96.8 1255.36L115.857 1261.43C118.839 1252.07 121.897 1242.74 125.031 1233.45L117.926 1231.05C121.056 1221.76 124.261 1212.51 127.54 1203.29L103.986 1194.91ZM3498.98 1220.29C3495.76 1210.81 3492.48 1201.36 3489.11 1191.96L3477.34 1196.17C3474.02 1186.87 3470.62 1177.61 3467.15 1168.39L3448.43 1175.44C3451.89 1184.62 3455.27 1193.83 3458.57 1203.09L3465.64 1200.56C3468.93 1209.78 3472.15 1219.03 3475.3 1228.31L3498.98 1220.29ZM84.8168 1251.82C81.7862 1261.34 78.8328 1270.9 75.9574 1280.5L87.9215 1284.08C85.0911 1293.52 82.337 1302.99 79.6597 1312.49L98.9103 1317.92C101.577 1308.45 104.32 1299.02 107.14 1289.62L99.9661 1287.47C102.782 1278.08 105.673 1268.72 108.64 1259.4L84.8168 1251.82ZM3517.29 1277.49C3514.4 1267.91 3511.43 1258.35 3508.38 1248.83L3496.46 1252.65C3493.46 1243.24 3490.37 1233.88 3487.21 1224.54L3468.27 1230.96C3471.42 1240.25 3474.49 1249.58 3477.48 1258.95L3484.63 1256.66C3487.62 1265.98 3490.52 1275.33 3493.35 1284.71L3517.29 1277.49ZM67.5863 1309.31C64.8741 1318.94 62.2402 1328.61 59.6854 1338.31L71.7556 1341.49C69.2451 1351.02 66.8117 1360.58 64.4559 1370.16L83.8782 1374.94C86.2281 1365.37 88.6563 1355.84 91.1618 1346.33L83.9273 1344.43C86.4256 1334.95 89.0004 1325.5 91.6512 1316.08L67.5863 1309.31ZM3533.66 1335.28C3531.09 1325.58 3528.44 1315.92 3525.71 1306.29L3513.67 1309.7C3510.98 1300.2 3508.21 1290.74 3505.37 1281.3L3486.22 1287.07C3489.05 1296.48 3491.81 1305.93 3494.49 1315.4L3501.73 1313.36C3504.39 1322.77 3506.98 1332.21 3509.5 1341.69L3533.66 1335.28ZM52.2876 1367.39C49.9067 1377.09 47.6046 1386.82 45.3819 1396.59L57.5448 1399.36C55.3567 1408.96 53.2461 1418.59 51.214 1428.26L70.7858 1432.37C72.8087 1422.75 74.9102 1413.16 77.0895 1403.6L69.8022 1401.94C71.98 1392.38 74.2352 1382.85 76.567 1373.35L52.2876 1367.39ZM3548.07 1393.53C3545.83 1383.77 3543.51 1374.04 3541.11 1364.35L3528.95 1367.35C3526.58 1357.77 3524.13 1348.22 3521.61 1338.69L3502.28 1343.82C3504.79 1353.3 3507.23 1362.81 3509.58 1372.35L3516.89 1370.54C3519.24 1380.04 3521.51 1389.57 3523.7 1399.12L3548.07 1393.53ZM3560.52 1452.29C3558.61 1442.46 3556.62 1432.66 3554.55 1422.89L3542.29 1425.49C3540.24 1415.83 3538.12 1406.2 3535.92 1396.6L3516.42 1401.07C3518.61 1410.63 3520.73 1420.21 3522.76 1429.83L3530.13 1428.27C3532.16 1437.84 3534.11 1447.44 3535.98 1457.06L3560.52 1452.29ZM38.9533 1425.96C36.9002 1435.73 34.9266 1445.54 33.0332 1455.37L45.2761 1457.73C43.4126 1467.4 41.6274 1477.1 39.9211 1486.83L59.6203 1490.28C61.319 1480.6 63.0969 1470.94 64.9532 1461.31L57.6203 1459.9C59.4756 1450.27 61.4089 1440.67 63.4194 1431.1L38.9533 1425.96ZM3570.99 1511.44C3569.41 1501.53 3567.74 1491.64 3565.99 1481.78L3553.65 1483.97C3551.93 1474.25 3550.13 1464.55 3548.25 1454.88L3528.62 1458.69C3530.49 1468.34 3532.29 1478.02 3534.01 1487.73L3541.43 1486.42C3543.13 1496.05 3544.76 1505.7 3546.3 1515.39L3570.99 1511.44ZM27.608 1484.87C25.8799 1494.73 24.2321 1504.62 22.6656 1514.54L34.9764 1516.48C33.439 1526.21 31.9805 1535.97 30.6015 1545.74L50.4055 1548.54C51.782 1538.78 53.2387 1529.04 54.7747 1519.33L47.4028 1518.17C48.9345 1508.48 50.5448 1498.82 52.2328 1489.19L27.608 1484.87ZM3579.46 1570.83C3578.21 1560.89 3576.88 1550.98 3575.47 1541.1L3563.06 1542.87C3561.67 1533.09 3560.19 1523.34 3558.64 1513.62L3538.89 1516.77C3540.44 1526.45 3541.9 1536.16 3543.29 1545.89L3550.75 1544.83C3552.13 1554.51 3553.43 1564.21 3554.66 1573.94L3579.46 1570.83ZM18.2329 1544.21C16.8402 1554.09 15.528 1564 14.297 1573.94L26.6643 1575.47C25.4535 1585.24 24.3219 1595.04 23.2703 1604.86L43.1566 1606.99C44.2034 1597.21 45.3304 1587.46 46.5367 1577.73L39.1316 1576.81C40.3385 1567.08 41.6243 1557.38 42.9884 1547.69L18.2329 1544.21ZM3585.96 1630.55C3585.04 1620.57 3584.04 1610.63 3582.96 1600.7L3570.5 1602.06C3569.43 1592.24 3568.28 1582.44 3567.06 1572.68L3547.21 1575.17C3548.43 1584.89 3549.58 1594.64 3550.64 1604.42L3558.13 1603.61C3559.19 1613.33 3560.16 1623.07 3561.06 1632.83L3585.96 1630.55ZM10.848 1603.82C9.78635 1613.75 8.80551 1623.7 7.90621 1633.67L20.3195 1634.79C19.4359 1644.59 18.6319 1654.42 17.9082 1664.27L37.8544 1665.74C38.575 1655.93 39.3761 1646.14 40.2569 1636.38L32.8235 1635.71C33.7053 1625.94 34.6665 1616.2 35.7062 1606.48L10.848 1603.82ZM3590.46 1690.44C3589.87 1680.41 3589.2 1670.41 3588.45 1660.42L3575.96 1661.36C3575.22 1651.52 3574.39 1641.69 3573.49 1631.89L3553.58 1633.72C3554.48 1643.51 3555.3 1653.32 3556.04 1663.16L3563.55 1662.59C3564.28 1672.34 3564.93 1682.11 3565.5 1691.9L3590.46 1690.44ZM5.46141 1663.55C4.72787 1673.54 4.07595 1683.54 3.50631 1693.57L15.956 1694.28C15.3992 1704.11 14.9222 1713.96 14.5256 1723.82L34.5095 1724.63C34.9055 1714.77 35.3827 1704.93 35.9405 1695.12L28.4827 1694.7C29.0406 1684.9 29.6779 1675.13 30.3942 1665.38L5.46141 1663.55ZM3592.98 1750.35C3592.72 1740.35 3592.39 1730.36 3591.97 1720.4L3579.46 1720.93C3579.04 1711.06 3578.55 1701.21 3577.97 1691.38L3558 1692.56C3558.58 1702.33 3559.07 1712.13 3559.48 1721.95L3567 1721.64C3567.41 1731.4 3567.74 1741.19 3567.99 1750.99L3592.98 1750.35ZM2.05235 1723.53C1.65121 1733.5 1.33125 1743.48 1.09312 1753.49L13.5709 1753.79C13.339 1763.63 13.1872 1773.49 13.1159 1783.36L33.1154 1783.51C33.1863 1773.68 33.3379 1763.87 33.5696 1754.08L26.0905 1753.9C26.3249 1744.09 26.639 1734.31 27.0321 1724.54L2.05235 1723.53ZM3593.57 1795.51C3593.57 1790.48 3593.55 1785.45 3593.5 1780.43L3581 1780.54C3580.95 1775.68 3580.89 1770.81 3580.8 1765.94C3580.72 1760.95 3580.61 1755.95 3580.48 1750.97L3560.49 1751.48C3560.61 1756.41 3560.72 1761.35 3560.81 1766.29C3560.89 1771.23 3560.96 1776.17 3561 1781.1L3568.5 1781.04C3568.52 1782.94 3568.53 1784.85 3568.55 1786.76C3568.56 1789.68 3568.57 1792.61 3568.57 1795.53C3568.58 1800.5 3568.56 1805.45 3568.53 1810.41L3593.53 1810.59C3593.56 1805.57 3593.58 1800.54 3593.57 1795.51ZM0.624844 1783.57C0.587928 1788.59 0.571626 1793.61 0.576017 1798.65C0.580408 1803.68 0.605487 1808.71 0.651174 1813.73L13.1497 1813.61C13.1956 1818.48 13.261 1823.34 13.346 1828.21C13.4332 1833.21 13.5409 1838.2 13.669 1843.19L33.6624 1842.68C33.5357 1837.74 33.4292 1832.81 33.343 1827.86C33.2567 1822.92 33.1908 1817.99 33.1453 1813.05L25.6467 1813.12C25.6038 1808.29 25.5802 1803.46 25.576 1798.62C25.5717 1793.66 25.5878 1788.7 25.6242 1783.75L0.624844 1783.57ZM3592.1 1870.62C3592.5 1860.66 3592.82 1850.67 3593.06 1840.67L3580.58 1840.37C3580.81 1830.53 3580.96 1820.67 3581.03 1810.79L3561.03 1810.65C3560.96 1820.48 3560.81 1830.29 3560.58 1840.08L3568.06 1840.26C3567.83 1850.06 3567.51 1859.85 3567.12 1869.62L3592.1 1870.62ZM1.17196 1843.8C1.42756 1853.81 1.76495 1863.79 2.18349 1873.76L14.6891 1873.23C15.1061 1883.1 15.6029 1892.95 16.179 1902.77L36.1447 1901.6C35.5715 1891.82 35.0776 1882.02 34.6636 1872.2L27.1537 1872.52C26.7445 1862.76 26.4143 1852.97 26.1638 1843.16L1.17196 1843.8ZM3588.69 1930.6C3589.42 1920.62 3590.07 1910.61 3590.64 1900.59L3578.19 1899.88C3578.75 1890.05 3579.23 1880.2 3579.62 1870.33L3559.64 1869.53C3559.24 1879.39 3558.77 1889.22 3558.21 1899.04L3565.67 1899.46C3565.11 1909.25 3564.47 1919.02 3563.76 1928.77L3588.69 1930.6ZM3.68975 1903.72C4.2769 1913.74 4.94628 1923.75 5.69725 1933.73L18.1901 1932.79C18.9325 1942.64 19.7545 1952.47 20.6557 1962.27L40.5717 1960.44C39.6718 1950.65 38.8516 1940.84 38.1117 1931L30.6048 1931.56C29.8731 1921.82 29.2203 1912.05 28.647 1902.26L3.68975 1903.72ZM3583.3 1990.34C3584.36 1980.41 3585.35 1970.46 3586.24 1960.49L3573.83 1959.37C3574.71 1949.56 3575.52 1939.73 3576.24 1929.89L3556.29 1928.42C3555.57 1938.23 3554.77 1948.01 3553.89 1957.78L3561.33 1958.45C3560.45 1968.21 3559.48 1977.96 3558.44 1987.68L3583.3 1990.34ZM8.19421 1963.61C9.11092 1973.58 10.1091 1983.53 11.1881 1993.45L23.649 1992.1C24.7172 2001.92 25.8648 2011.71 27.0911 2021.48L46.9354 2018.99C45.7144 2009.26 44.5723 1999.51 43.5099 1989.74L36.0197 1990.55C34.9641 1980.83 33.987 1971.09 33.0892 1961.32L8.19421 1963.61ZM3575.92 2049.95C3577.31 2040.07 3578.62 2030.16 3579.85 2020.22L3567.48 2018.69C3568.7 2008.91 3569.83 1999.12 3570.88 1989.3L3550.99 1987.17C3549.95 1996.95 3548.82 2006.7 3547.61 2016.42L3555.02 2017.34C3553.81 2027.07 3552.53 2036.78 3551.16 2046.46L3575.92 2049.95ZM14.6893 2023.33C15.9376 2033.26 17.2671 2043.17 18.677 2053.06L31.0875 2051.29C32.4823 2061.06 33.9561 2070.81 35.5083 2080.54L55.2582 2077.38C53.7131 2067.7 52.2466 2058 50.8592 2048.27L43.3985 2049.33C42.0186 2039.65 40.7169 2029.94 39.4942 2020.21L14.6893 2023.33ZM3566.54 2109.28C3568.27 2099.42 3569.92 2089.53 3571.48 2079.62L3559.17 2077.67C3560.71 2067.94 3562.17 2058.19 3563.55 2048.41L3543.74 2045.62C3542.37 2055.38 3540.91 2065.12 3539.37 2074.83L3546.75 2075.99C3545.22 2085.68 3543.61 2095.34 3541.92 2104.97L3566.54 2109.28ZM23.1615 2082.71C24.7453 2092.63 26.4103 2102.51 28.1557 2112.37L40.4982 2110.19C42.2191 2119.91 44.0187 2129.61 45.8961 2139.28L65.5294 2135.46C63.6554 2125.81 61.8599 2116.13 60.1436 2106.43L52.7243 2107.74C51.021 2098.11 49.3955 2088.45 47.8484 2078.77L23.1615 2082.71ZM3555.2 2168.2C3557.25 2158.42 3559.22 2148.62 3561.12 2138.79L3548.87 2136.43C3550.74 2126.76 3552.52 2117.06 3554.23 2107.33L3534.53 2103.88C3532.83 2113.56 3531.05 2123.21 3529.2 2132.84L3536.53 2134.26C3534.67 2143.89 3532.74 2153.49 3530.73 2163.06L3555.2 2168.2ZM33.6323 2141.86C35.5429 2151.69 37.5336 2161.49 39.6038 2171.26L51.8617 2168.67C53.9074 2178.33 56.0311 2187.96 58.2322 2197.56L77.7264 2193.09C75.5352 2183.53 73.4214 2173.94 71.3858 2164.33L64.019 2165.88C61.9928 2156.32 60.0439 2146.72 58.173 2137.09L33.6323 2141.86ZM46.0836 2200.63C48.3233 2210.38 50.6424 2220.11 53.0402 2229.81L65.1977 2226.8C67.5669 2236.39 70.0134 2245.94 72.5365 2255.46L91.8694 2250.34C89.3577 2240.86 86.9228 2231.35 84.5654 2221.81L77.2613 2223.61C74.914 2214.12 72.6434 2204.59 70.45 2195.03L46.0836 2200.63ZM3541.86 2226.76C3544.24 2217.06 3546.55 2207.33 3548.77 2197.57L3536.6 2194.8C3538.79 2185.2 3540.9 2175.56 3542.93 2165.9L3523.36 2161.78C3521.34 2171.4 3519.24 2180.99 3517.06 2190.55L3524.35 2192.22C3522.17 2201.77 3519.92 2211.3 3517.58 2220.8L3541.86 2226.76ZM60.4887 2258.88C63.0604 2268.57 65.7112 2278.24 68.4402 2287.87L80.4823 2284.46C83.1726 2293.95 85.9396 2303.42 88.7824 2312.85L107.932 2307.08C105.096 2297.67 102.337 2288.23 99.6543 2278.75L92.4223 2280.8C89.7565 2271.39 87.1666 2261.94 84.6532 2252.47L60.4887 2258.88ZM3526.56 2284.85C3529.28 2275.21 3531.91 2265.55 3534.46 2255.84L3522.39 2252.67C3524.9 2243.14 3527.34 2233.58 3529.69 2223.99L3510.27 2219.22C3507.92 2228.79 3505.49 2238.32 3502.99 2247.82L3510.22 2249.73C3507.72 2259.21 3505.15 2268.66 3502.5 2278.08L3526.56 2284.85ZM76.8616 2316.66C79.7536 2326.25 82.7237 2335.8 85.7709 2345.32L97.6837 2341.51C100.692 2350.91 103.776 2360.28 106.935 2369.61L125.879 2363.2C122.733 2353.91 119.662 2344.58 116.667 2335.21L109.516 2337.5C106.534 2328.18 103.627 2318.83 100.796 2309.44L76.8616 2316.66ZM3509.33 2342.34C3512.36 2332.81 3515.32 2323.25 3518.19 2313.66L3506.23 2310.07C3509.06 2300.63 3511.81 2291.16 3514.49 2281.66L3495.24 2276.24C3492.57 2285.7 3489.83 2295.13 3487.01 2304.53L3494.18 2306.69C3491.37 2316.08 3488.48 2325.43 3485.51 2334.76L3509.33 2342.34ZM95.1742 2373.87C98.3859 2383.35 101.675 2392.79 105.039 2402.2L116.809 2397.99C120.132 2407.29 123.53 2416.55 127.002 2425.77L145.72 2418.72C142.263 2409.54 138.882 2400.32 135.575 2391.07L128.512 2393.59C125.218 2384.38 121.998 2375.13 118.852 2365.85L95.1742 2373.87ZM3490.16 2399.25C3493.51 2389.83 3496.79 2380.38 3499.98 2370.9L3488.13 2366.91C3491.28 2357.57 3494.35 2348.2 3497.35 2338.79L3478.29 2332.72C3475.31 2342.09 3472.25 2351.42 3469.12 2360.71L3476.22 2363.11C3473.09 2372.4 3469.89 2381.65 3466.61 2390.87L3490.16 2399.25ZM115.388 2430.38C118.922 2439.76 122.532 2449.11 126.218 2458.41L137.832 2453.81C141.466 2462.99 145.174 2472.13 148.955 2481.23L167.424 2473.55C163.655 2464.48 159.959 2455.37 156.337 2446.22L149.37 2448.98C145.767 2439.88 142.238 2430.74 138.782 2421.57L115.388 2430.38ZM3469.08 2455.49C3472.75 2446.18 3476.35 2436.83 3479.87 2427.45L3468.15 2423.06C3471.61 2413.83 3475 2404.57 3478.31 2395.27L3459.47 2388.56C3456.17 2397.83 3452.79 2407.07 3449.34 2416.27L3456.37 2418.91C3452.93 2428.08 3449.41 2437.22 3445.83 2446.33L3469.08 2455.49ZM137.5 2486.21C141.345 2495.46 145.266 2504.67 149.26 2513.84L160.707 2508.85C164.647 2517.9 168.66 2526.91 172.745 2535.88L190.946 2527.59C186.876 2518.65 182.877 2509.68 178.952 2500.66L172.089 2503.65C168.182 2494.67 164.347 2485.66 160.585 2476.61L137.5 2486.21ZM3446.14 2510.96C3450.12 2501.78 3454.02 2492.57 3457.85 2483.31L3446.29 2478.53C3450.05 2469.42 3453.75 2460.28 3457.37 2451.1L3438.76 2443.76C3435.16 2452.91 3431.47 2462.02 3427.72 2471.09L3434.66 2473.97C3430.91 2483.02 3427.09 2492.04 3423.2 2501.02L3446.14 2510.96ZM161.487 2541.28C165.637 2550.38 169.86 2559.45 174.157 2568.47L185.424 2563.11C189.666 2572.02 193.979 2580.89 198.364 2589.71L216.276 2580.82C211.911 2572.03 207.618 2563.2 203.396 2554.33L196.642 2557.54C192.435 2548.7 188.3 2539.83 184.236 2530.91L161.487 2541.28ZM3421.34 2565.64C3425.62 2556.61 3429.83 2547.54 3433.96 2538.42L3422.56 2533.25C3426.63 2524.28 3430.63 2515.26 3434.56 2506.21L3416.21 2498.25C3412.3 2507.26 3408.32 2516.24 3404.26 2525.17L3411.11 2528.28C3407.06 2537.2 3402.94 2546.09 3398.75 2554.93L3421.34 2565.64ZM187.296 2595.48C191.753 2604.45 196.283 2613.38 200.886 2622.26L211.963 2616.52C216.501 2625.29 221.11 2634.01 225.788 2642.68L243.392 2633.19C238.729 2624.54 234.136 2615.85 229.614 2607.12L222.976 2610.55C218.475 2601.86 214.044 2593.13 209.684 2584.35L187.296 2595.48ZM3394.7 2619.48C3399.29 2610.58 3403.8 2601.65 3408.25 2592.67L3397.02 2587.12C3401.39 2578.28 3405.69 2569.41 3409.92 2560.49L3391.85 2551.92C3387.63 2560.81 3383.35 2569.65 3378.99 2578.46L3385.73 2581.8C3381.39 2590.58 3376.97 2599.32 3372.48 2608.02L3394.7 2619.48ZM214.908 2648.78C219.664 2657.6 224.491 2666.37 229.389 2675.1L240.266 2669C245.095 2677.6 249.992 2686.16 254.959 2694.67L272.235 2684.6C267.284 2676.11 262.402 2667.58 257.589 2659L251.072 2662.65C246.283 2654.12 241.562 2645.54 236.91 2636.92L214.908 2648.78ZM3366.29 2672.36C3371.17 2663.63 3375.99 2654.85 3380.73 2646.02L3369.69 2640.09C3374.36 2631.41 3378.95 2622.69 3383.47 2613.92L3365.7 2604.75C3361.19 2613.49 3356.61 2622.19 3351.96 2630.84L3358.59 2634.41C3353.95 2643.04 3349.24 2651.62 3344.47 2660.17L3366.29 2672.36ZM244.305 2701.16C249.348 2709.8 254.46 2718.4 259.642 2726.95L270.307 2720.48C275.42 2728.92 280.602 2737.31 285.85 2745.66L302.779 2735.01C297.553 2726.7 292.394 2718.34 287.303 2709.94L280.914 2713.81C275.841 2705.44 270.836 2697.02 265.898 2688.56L244.305 2701.16ZM3336.13 2724.27C3341.3 2715.71 3346.39 2707.1 3351.42 2698.45L3340.59 2692.16C3345.54 2683.63 3350.43 2675.07 3355.24 2666.46L3337.78 2656.7C3332.99 2665.27 3328.12 2673.8 3323.19 2682.29L3329.7 2686.07C3324.78 2694.54 3319.79 2702.97 3314.73 2711.34L3336.13 2724.27ZM275.426 2752.51C280.758 2760.98 286.159 2769.41 291.628 2777.79L302.071 2770.97C307.463 2779.23 312.922 2787.44 318.446 2795.61L335.01 2784.4C329.505 2776.26 324.065 2768.08 318.692 2759.84L312.436 2763.93C307.086 2755.73 301.803 2747.48 296.586 2739.19L275.426 2752.51ZM3304.23 2775.16C3309.69 2766.77 3315.07 2758.33 3320.39 2749.85L3309.77 2743.2C3315.01 2734.84 3320.18 2726.45 3325.28 2718L3308.16 2707.66C3303.07 2716.08 3297.92 2724.45 3292.7 2732.77L3299.08 2736.77C3293.88 2745.07 3288.61 2753.32 3283.27 2761.53L3304.23 2775.16ZM308.237 2802.77C313.851 2811.07 319.533 2819.31 325.281 2827.51L335.492 2820.35C341.157 2828.42 346.886 2836.45 352.68 2844.42L368.861 2832.67C363.084 2824.72 357.372 2816.71 351.725 2808.66L345.606 2812.95C339.986 2804.94 334.431 2796.87 328.941 2788.76L308.237 2802.77ZM3270.66 2824.94C3276.4 2816.73 3282.07 2808.48 3287.67 2800.17L3277.28 2793.17C3282.79 2785 3288.23 2776.78 3293.61 2768.51L3276.85 2757.6C3271.48 2765.85 3266.05 2774.05 3260.56 2782.19L3266.8 2786.4C3261.32 2794.52 3255.78 2802.6 3250.17 2810.62L3270.66 2824.94ZM342.725 2851.94C348.607 2860.04 354.555 2868.08 360.568 2876.07L370.537 2868.57C376.467 2876.46 382.46 2884.29 388.517 2892.06L404.297 2879.78C398.263 2872.03 392.293 2864.23 386.386 2856.37L380.412 2860.87C374.528 2853.04 368.707 2845.17 362.95 2837.25L342.725 2851.94ZM3235.46 2873.57C3241.46 2865.56 3247.4 2857.51 3253.26 2849.4L3243.12 2842.06C3248.9 2834.07 3254.61 2826.04 3260.26 2817.96L3243.87 2806.5C3238.24 2814.55 3232.55 2822.56 3226.79 2830.51L3232.88 2834.92C3227.14 2842.86 3221.33 2850.74 3215.46 2858.57L3235.46 2873.57ZM378.822 2899.92C384.971 2907.82 391.186 2915.66 397.463 2923.45L407.18 2915.62C413.369 2923.3 419.62 2930.93 425.932 2938.5L441.295 2925.7C435.004 2918.15 428.775 2910.55 422.608 2902.9L416.784 2907.59C410.643 2899.96 404.564 2892.29 398.547 2884.56L378.822 2899.92ZM3198.65 2921.01C3204.91 2913.21 3211.11 2905.35 3217.25 2897.45L3207.36 2889.77C3213.4 2881.98 3219.38 2874.14 3225.3 2866.25L3209.29 2854.26C3203.4 2862.12 3197.44 2869.93 3191.42 2877.69L3197.36 2882.31C3191.35 2890.04 3185.29 2897.73 3179.16 2905.36L3198.65 2921.01ZM416.491 2946.67C422.901 2954.36 429.374 2961.99 435.909 2969.57L445.364 2961.42C451.804 2968.89 458.304 2976.3 464.865 2983.66L479.794 2970.35C473.254 2963.02 466.774 2955.63 460.355 2948.18L454.687 2953.07C448.295 2945.65 441.964 2938.18 435.694 2930.66L416.491 2946.67ZM3160.29 2967.2C3166.81 2959.61 3173.27 2951.96 3179.66 2944.26L3170.04 2936.26C3176.33 2928.68 3182.57 2921.04 3188.75 2913.35L3173.15 2900.83C3167 2908.5 3160.78 2916.11 3154.5 2923.67L3160.28 2928.47C3154.02 2936 3147.7 2943.48 3141.32 2950.91L3160.29 2967.2ZM455.7 2992.15C462.36 2999.62 469.081 3007.03 475.863 3014.39L485.046 3005.92C491.73 3013.17 498.474 3020.37 505.275 3027.5L519.754 3013.71C512.975 3006.59 506.255 2999.42 499.594 2992.2L494.087 2997.27C487.452 2990.07 480.876 2982.82 474.36 2975.51L455.7 2992.15ZM3120.41 3012.08C3127.18 3004.71 3133.89 2997.29 3140.53 2989.81L3131.18 2981.5C3137.73 2974.13 3144.22 2966.7 3150.64 2959.22L3135.47 2946.19C3129.07 2953.64 3122.6 2961.04 3116.08 2968.39L3121.69 2973.38C3115.18 2980.69 3108.62 2987.96 3102 2995.17L3120.41 3012.08ZM496.395 3036.29C503.3 3043.54 510.264 3050.73 517.287 3057.85L526.189 3049.08C533.109 3056.11 540.088 3063.07 547.123 3069.98L561.135 3055.71C554.123 3048.82 547.168 3041.88 540.271 3034.88L534.931 3040.14C528.061 3033.17 521.248 3026.13 514.493 3019.05L496.395 3036.29ZM3079.06 3055.62C3086.07 3048.48 3093.02 3041.28 3099.91 3034.02L3090.85 3025.41C3097.64 3018.26 3104.37 3011.06 3111.04 3003.8L3096.31 2990.27C3089.66 2997.5 3082.95 3004.69 3076.18 3011.81L3081.63 3016.98C3074.88 3024.08 3068.08 3031.12 3061.22 3038.1L3079.06 3055.62ZM538.534 3079.06C545.675 3086.07 552.874 3093.03 560.13 3099.92L568.74 3090.85C575.889 3097.64 583.095 3104.37 590.357 3111.04L603.887 3096.31C596.65 3089.67 589.468 3082.96 582.342 3076.19L577.176 3081.63C570.078 3074.89 563.035 3068.08 556.049 3061.22L538.534 3079.06ZM3036.29 3097.76C3043.54 3090.85 3050.72 3083.89 3057.85 3076.87L3049.08 3067.96C3056.1 3061.04 3063.07 3054.06 3069.98 3047.03L3055.71 3033.02C3048.82 3040.03 3041.88 3046.98 3034.88 3053.88L3040.14 3059.22C3033.16 3066.09 3026.13 3072.91 3019.04 3079.66L3036.29 3097.76ZM582.072 3120.41C589.44 3127.18 596.866 3133.89 604.347 3140.54L612.655 3131.19C620.026 3137.73 627.452 3144.22 634.931 3150.65L647.965 3135.48C640.511 3129.07 633.11 3122.61 625.765 3116.08L620.778 3121.69C613.459 3115.19 606.194 3108.62 598.984 3102L582.072 3120.41ZM2992.15 3138.45C2999.61 3131.79 3007.03 3125.07 3014.39 3118.29L3005.92 3109.11C3013.17 3102.42 3020.36 3095.68 3027.5 3088.88L3013.7 3074.4C3006.59 3081.18 2999.42 3087.9 2992.19 3094.56L2997.27 3100.07C2990.07 3106.7 2982.82 3113.28 2975.51 3119.79L2992.15 3138.45ZM626.955 3160.29C634.546 3166.81 642.193 3173.27 649.893 3179.67L657.889 3170.04C665.473 3176.34 673.11 3182.58 680.799 3188.75L693.322 3173.16C685.657 3167 678.044 3160.78 670.484 3154.5L665.683 3160.28C658.151 3154.02 650.672 3147.7 643.247 3141.33L626.955 3160.29ZM2946.67 3177.66C2954.36 3171.25 2961.99 3164.78 2969.57 3158.24L2961.42 3148.79C2968.89 3142.35 2976.3 3135.85 2983.66 3129.29L2970.35 3114.36C2963.01 3120.9 2955.62 3127.38 2948.18 3133.8L2953.07 3139.47C2945.65 3145.86 2938.18 3152.19 2930.66 3158.46L2946.67 3177.66ZM673.142 3198.65C680.944 3204.92 688.799 3211.12 696.706 3217.25L704.38 3207.36C712.17 3213.41 720.01 3219.39 727.901 3225.3L739.898 3209.3C732.034 3203.4 724.22 3197.44 716.458 3191.42L711.849 3197.36C704.112 3191.36 696.427 3185.29 688.794 3179.16L673.142 3198.65ZM2899.92 3215.33C2907.82 3209.18 2915.66 3202.97 2923.45 3196.69L2915.62 3186.97C2923.3 3180.78 2930.93 3174.53 2938.5 3168.22L2925.69 3152.86C2918.15 3159.15 2910.55 3165.38 2902.89 3171.54L2907.58 3177.37C2899.96 3183.51 2892.29 3189.59 2884.56 3195.61L2899.92 3215.33ZM720.586 3235.47C728.589 3241.46 736.644 3247.4 744.749 3253.27L752.092 3243.12C760.078 3248.9 768.113 3254.62 776.198 3260.27L787.655 3243.88C779.601 3238.25 771.596 3232.55 763.641 3226.79L759.23 3232.89C751.297 3227.14 743.414 3221.33 735.581 3215.46L720.586 3235.47ZM2851.94 3251.43C2860.04 3245.55 2868.08 3239.6 2876.07 3233.59L2868.57 3223.62C2876.45 3217.69 2884.28 3211.69 2892.06 3205.64L2879.77 3189.86C2872.02 3195.89 2864.22 3201.86 2856.37 3207.77L2860.86 3213.74C2853.04 3219.63 2845.17 3225.45 2837.24 3231.2L2851.94 3251.43ZM769.214 3270.67C777.419 3276.4 785.675 3282.07 793.98 3287.67L800.982 3277.28C809.156 3282.79 817.377 3288.24 825.646 3293.62L836.55 3276.85C828.305 3271.49 820.108 3266.06 811.958 3260.56L807.751 3266.8C799.63 3261.32 791.558 3255.78 783.534 3250.18L769.214 3270.67ZM2802.77 3285.92C2811.06 3280.3 2819.31 3274.62 2827.51 3268.87L2820.34 3258.66C2828.42 3253 2836.44 3247.27 2844.42 3241.47L2832.66 3225.29C2824.71 3231.07 2816.71 3236.78 2808.66 3242.43L2812.95 3248.55C2804.93 3254.17 2796.87 3259.72 2788.76 3265.21L2802.77 3285.92ZM818.996 3304.23C827.383 3309.69 835.819 3315.07 844.303 3320.39L850.956 3309.78C859.308 3315.01 867.707 3320.18 876.151 3325.28L886.49 3308.16C878.075 3303.08 869.705 3297.93 861.381 3292.71L857.383 3299.09C849.084 3293.88 840.831 3288.61 832.625 3283.28L818.996 3304.23ZM2752.5 3318.73C2760.98 3313.4 2769.4 3307.99 2777.78 3302.53L2770.96 3292.08C2779.22 3286.69 2787.44 3281.23 2795.6 3275.71L2784.39 3259.14C2776.26 3264.65 2768.07 3270.09 2759.84 3275.46L2763.92 3281.72C2755.73 3287.07 2747.48 3292.35 2739.19 3297.57L2752.5 3318.73ZM869.888 3336.13C878.446 3341.3 887.051 3346.4 895.701 3351.42L901.995 3340.59C910.518 3345.54 919.085 3350.43 927.696 3355.24L937.457 3337.79C928.882 3332.99 920.352 3328.13 911.865 3323.2L908.083 3329.7C899.613 3324.78 891.188 3319.79 882.809 3314.73L869.888 3336.13ZM2701.16 3349.85C2709.8 3344.81 2718.4 3339.69 2726.95 3334.51L2720.48 3323.85C2728.92 3318.73 2737.31 3313.55 2745.65 3308.3L2735 3291.37C2726.69 3296.6 2718.34 3301.76 2709.94 3306.85L2713.81 3313.24C2705.44 3318.31 2697.02 3323.32 2688.56 3328.25L2701.16 3349.85ZM921.789 3366.29C930.525 3371.18 939.305 3375.99 948.13 3380.73L954.058 3369.7C962.741 3374.36 971.467 3378.95 980.235 3383.48L989.406 3365.71C980.665 3361.2 971.966 3356.61 963.311 3351.96L959.748 3358.59C951.118 3353.95 942.531 3349.25 933.987 3344.47L921.789 3366.29ZM2648.78 3379.25C2657.6 3374.49 2666.37 3369.66 2675.1 3364.76L2668.99 3353.89C2677.6 3349.06 2686.16 3344.16 2694.67 3339.19L2684.59 3321.92C2676.11 3326.87 2667.57 3331.75 2658.99 3336.56L2662.65 3343.08C2654.11 3347.87 2645.54 3352.59 2636.91 3357.24L2648.78 3379.25ZM974.677 3394.7C983.57 3399.29 992.506 3403.81 1001.48 3408.25L1007.04 3397.02C1015.87 3401.4 1024.75 3405.7 1033.66 3409.92L1042.23 3391.85C1033.35 3387.64 1024.5 3383.35 1015.7 3378.99L1012.36 3385.74C1003.58 3381.39 994.836 3376.97 986.138 3372.49L974.677 3394.7ZM2595.48 3406.86C2604.45 3402.4 2613.37 3397.87 2622.26 3393.27L2616.52 3382.19C2625.28 3377.65 2634 3373.04 2642.68 3368.37L2633.18 3350.76C2624.54 3355.42 2615.85 3360.02 2607.11 3364.54L2610.55 3371.18C2601.86 3375.68 2593.13 3380.11 2584.35 3384.47L2595.48 3406.86ZM1028.51 3421.34C1037.55 3425.62 1046.62 3429.83 1055.73 3433.96L1060.9 3422.56C1069.88 3426.63 1078.89 3430.63 1087.95 3434.56L1095.9 3416.21C1086.89 3412.3 1077.92 3408.32 1068.98 3404.27L1065.87 3411.11C1056.95 3407.06 1048.07 3402.94 1039.22 3398.75L1028.51 3421.34ZM2541.27 3432.67C2550.38 3428.52 2559.45 3424.29 2568.47 3420L2563.1 3408.73C2572.01 3404.49 2580.88 3400.17 2589.71 3395.79L2580.81 3377.88C2572.02 3382.24 2563.19 3386.54 2554.32 3390.76L2557.54 3397.51C2548.7 3401.72 2539.82 3405.85 2530.91 3409.92L2541.27 3432.67ZM1083.19 3446.14C1092.37 3450.12 1101.59 3454.02 1110.84 3457.85L1115.62 3446.29C1124.73 3450.06 1133.88 3453.75 1143.06 3457.37L1150.39 3438.77C1141.25 3435.16 1132.13 3431.48 1123.06 3427.72L1120.19 3434.66C1111.13 3430.92 1102.11 3427.1 1093.13 3423.2L1083.19 3446.14ZM2486.21 3456.65C2495.45 3452.81 2504.67 3448.89 2513.84 3444.89L2508.85 3433.45C2517.9 3429.51 2526.91 3425.49 2535.88 3421.41L2527.59 3403.21C2518.65 3407.28 2509.67 3411.28 2500.65 3415.2L2503.64 3422.06C2494.67 3425.97 2485.66 3429.81 2476.61 3433.57L2486.21 3456.65ZM1138.66 3469.09C1147.97 3472.76 1157.32 3476.35 1166.71 3479.87L1171.09 3468.16C1180.32 3471.62 1189.58 3475 1198.88 3478.31L1205.59 3459.47C1196.32 3456.17 1187.08 3452.79 1177.88 3449.34L1175.25 3456.37C1166.07 3452.93 1156.93 3449.42 1147.83 3445.83L1138.66 3469.09ZM2430.38 3478.77C2439.76 3475.23 2449.1 3471.62 2458.41 3467.94L2453.81 3456.32C2462.98 3452.69 2472.12 3448.98 2481.22 3445.2L2473.55 3426.73C2464.48 3430.5 2455.36 3434.19 2446.21 3437.82L2448.97 3444.78C2439.87 3448.39 2430.74 3451.92 2421.57 3455.37L2430.38 3478.77ZM1194.91 3490.17C1204.32 3493.52 1213.77 3496.79 1223.26 3499.98L1227.24 3488.14C1236.58 3491.29 1245.95 3494.36 1255.36 3497.35L1261.43 3478.3C1252.07 3475.31 1242.74 3472.26 1233.44 3469.12L1231.05 3476.23C1221.76 3473.1 1212.5 3469.89 1203.28 3466.61L1194.91 3490.17ZM2373.87 3498.98C2383.35 3495.77 2392.79 3492.48 2402.2 3489.11L2397.99 3477.34C2407.28 3474.02 2416.54 3470.62 2425.76 3467.15L2418.72 3448.43C2409.54 3451.89 2400.32 3455.27 2391.07 3458.58L2393.59 3465.64C2384.38 3468.94 2375.13 3472.16 2365.84 3475.3L2373.87 3498.98ZM1251.82 3509.34C1261.34 3512.37 1270.9 3515.32 1280.49 3518.2L1284.08 3506.23C1293.52 3509.06 1302.99 3511.82 1312.49 3514.49L1317.91 3495.24C1308.45 3492.58 1299.02 3489.83 1289.62 3487.01L1287.47 3494.19C1278.08 3491.37 1268.72 3488.48 1259.4 3485.51L1251.82 3509.34ZM2316.66 3517.29C2326.25 3514.4 2335.8 3511.43 2345.32 3508.38L2341.51 3496.47C2350.91 3493.46 2360.28 3490.38 2369.61 3487.22L2363.2 3468.27C2353.9 3471.42 2344.57 3474.49 2335.21 3477.49L2337.49 3484.64C2328.18 3487.62 2318.82 3490.53 2309.44 3493.36L2316.66 3517.29ZM1309.3 3526.57C1318.94 3529.28 1328.61 3531.91 1338.31 3534.47L1341.49 3522.4C1351.01 3524.91 1360.57 3527.34 1370.16 3529.7L1374.93 3510.27C1365.37 3507.92 1355.83 3505.5 1346.33 3502.99L1344.42 3510.23C1334.94 3507.73 1325.49 3505.15 1316.08 3502.5L1309.3 3526.57ZM2258.87 3533.66C2268.57 3531.09 2278.23 3528.44 2287.86 3525.71L2284.45 3513.67C2293.95 3510.98 2303.42 3508.21 2312.85 3505.37L2307.08 3486.22C2297.67 3489.06 2288.23 3491.82 2278.75 3494.5L2280.8 3501.73C2271.38 3504.4 2261.94 3506.99 2252.46 3509.5L2258.87 3533.66ZM1367.39 3541.87C1377.09 3544.25 1386.82 3546.55 1396.58 3548.77L1399.35 3536.61C1408.96 3538.8 1418.59 3540.91 1428.25 3542.94L1432.37 3523.37C1422.75 3521.34 1413.16 3519.24 1403.6 3517.06L1401.94 3524.35C1392.38 3522.17 1382.85 3519.92 1373.35 3517.59L1367.39 3541.87ZM2200.62 3548.07C2210.38 3545.83 2220.11 3543.51 2229.81 3541.11L2226.8 3528.95C2236.38 3526.59 2245.94 3524.14 2255.46 3521.62L2250.34 3502.28C2240.86 3504.8 2231.35 3507.23 2221.8 3509.59L2223.61 3516.89C2214.11 3519.24 2204.59 3521.51 2195.03 3523.7L2200.62 3548.07ZM1425.96 3555.2C1435.73 3557.25 1445.54 3559.23 1455.37 3561.12L1457.73 3548.88C1467.4 3550.74 1477.1 3552.53 1486.82 3554.23L1490.28 3534.53C1480.59 3532.83 1470.94 3531.06 1461.31 3529.2L1459.9 3536.53C1450.27 3534.68 1440.67 3532.74 1431.1 3530.73L1425.96 3555.2ZM2141.86 3560.52C2151.69 3558.61 2161.49 3556.62 2171.26 3554.55L2168.66 3542.29C2178.32 3540.25 2187.95 3538.12 2197.55 3535.92L2193.09 3516.43C2183.53 3518.62 2173.94 3520.73 2164.32 3522.77L2165.88 3530.13C2156.31 3532.16 2146.72 3534.11 2137.09 3535.98L2141.86 3560.52ZM2082.71 3570.99C2092.62 3569.41 2102.51 3567.74 2112.37 3566L2110.18 3553.65C2119.91 3551.93 2129.6 3550.13 2139.27 3548.26L2135.46 3528.62C2125.81 3530.5 2116.13 3532.29 2106.42 3534.01L2107.73 3541.43C2098.11 3543.13 2088.45 3544.76 2078.77 3546.3L2082.71 3570.99ZM1484.87 3566.55C1494.73 3568.27 1504.62 3569.92 1514.54 3571.49L1516.48 3559.18C1526.21 3560.71 1535.96 3562.17 1545.74 3563.55L1548.53 3543.75C1538.77 3542.37 1529.04 3540.91 1519.33 3539.38L1518.16 3546.75C1508.48 3545.22 1498.82 3543.61 1489.18 3541.92L1484.87 3566.55ZM1544.2 3575.92C1554.09 3577.31 1564 3578.63 1573.93 3579.86L1575.47 3567.49C1585.24 3568.7 1595.03 3569.83 1604.85 3570.88L1606.98 3551C1597.21 3549.95 1587.46 3548.82 1577.73 3547.62L1576.81 3555.02C1567.08 3553.81 1557.37 3552.53 1547.69 3551.17L1544.2 3575.92ZM2023.33 3579.46C2033.26 3578.22 2043.17 3576.89 2053.05 3575.48L2051.28 3563.07C2061.06 3561.67 2070.81 3560.2 2080.53 3558.64L2077.38 3538.89C2067.7 3540.44 2057.99 3541.91 2048.26 3543.29L2049.33 3550.76C2039.65 3552.13 2029.94 3553.44 2020.21 3554.66L2023.33 3579.46ZM1963.61 3585.96C1973.58 3585.04 1983.53 3584.04 1993.45 3582.97L1992.1 3570.5C2001.92 3569.44 2011.71 3568.29 2021.48 3567.06L2018.99 3547.22C2009.26 3548.44 1999.51 3549.58 1989.73 3550.64L1990.55 3558.13C1980.83 3559.19 1971.08 3560.17 1961.32 3561.06L1963.61 3585.96ZM1603.82 3583.31C1613.74 3584.37 1623.69 3585.35 1633.67 3586.25L1634.79 3573.83C1644.59 3574.72 1654.42 3575.52 1664.27 3576.24L1665.73 3556.3C1655.93 3555.58 1646.14 3554.78 1636.38 3553.9L1635.71 3561.33C1625.94 3560.45 1616.2 3559.49 1606.48 3558.45L1603.82 3583.31ZM1663.55 3588.69C1673.53 3589.43 1683.54 3590.08 1693.57 3590.65L1694.28 3578.2C1704.1 3578.75 1713.95 3579.23 1723.82 3579.63L1724.62 3559.64C1714.77 3559.25 1704.93 3558.77 1695.11 3558.21L1694.69 3565.67C1684.9 3565.11 1675.13 3564.48 1665.38 3563.76L1663.55 3588.69ZM1903.71 3590.46C1913.74 3589.88 1923.75 3589.21 1933.73 3588.46L1932.79 3575.96C1942.64 3575.22 1952.46 3574.4 1962.27 3573.5L1960.44 3553.58C1950.65 3554.48 1940.83 3555.3 1930.99 3556.04L1931.56 3563.55C1921.81 3564.28 1912.04 3564.93 1902.25 3565.51L1903.71 3590.46ZM1723.53 3592.1C1733.5 3592.5 1743.48 3592.82 1753.49 3593.06L1753.78 3580.58C1763.62 3580.81 1773.48 3580.97 1783.36 3581.04L1783.5 3561.04C1773.67 3560.97 1763.86 3560.82 1754.07 3560.58L1753.89 3568.06C1744.09 3567.83 1734.3 3567.51 1724.54 3567.12L1723.53 3592.1ZM1843.8 3592.98C1853.8 3592.73 1863.79 3592.39 1873.75 3591.97L1873.23 3579.46C1883.1 3579.05 1892.94 3578.55 1902.77 3577.97L1901.6 3558.01C1891.82 3558.58 1882.02 3559.08 1872.2 3559.49L1872.52 3567C1862.75 3567.41 1852.97 3567.74 1843.16 3567.99L1843.8 3592.98ZM1783.56 3593.53C1786.13 3593.55 1788.7 3593.56 1791.27 3593.57C1793.73 3593.58 1796.18 3593.58 1798.64 3593.58C1803.68 3593.57 1808.7 3593.55 1813.72 3593.5L1813.61 3581C1818.47 3580.96 1823.34 3580.89 1828.21 3580.81C1833.21 3580.72 1838.2 3580.61 1843.19 3580.48L1842.67 3560.49C1837.74 3560.62 1832.8 3560.72 1827.86 3560.81C1822.92 3560.9 1817.98 3560.96 1813.05 3561.01L1813.12 3568.51C1808.29 3568.55 1803.46 3568.57 1798.62 3568.58C1793.66 3568.58 1788.7 3568.57 1783.75 3568.53L1783.56 3593.53Z" fill="#DDE6F0"/>
</svg>
