<svg width="449" height="670" viewBox="0 0 449 670" fill="none" xmlns="http://www.w3.org/2000/svg">
<g opacity="0.9">
<mask id="path-1-inside-1_2116_222" fill="white">
<path fill-rule="evenodd" clip-rule="evenodd" d="M334.408 0.428815C336.177 2.801 344.434 24.7438 352.691 49.0587C360.948 73.3736 366.255 94.1302 365.076 95.9094C363.896 97.6885 348.563 98.8746 330.87 98.8746C313.766 98.8746 298.432 96.5024 296.663 92.9442C294.893 89.3859 296.663 81.0832 300.791 73.3736C304.919 66.257 308.458 55.5822 309.637 49.6517C310.817 44.3143 316.125 30.0812 321.433 17.6272C326.741 5.76629 332.639 -1.94337 334.408 0.428815ZM88.4745 303.476C91.4233 305.848 94.3723 319.488 93.7825 334.907C93.7825 350.326 92.0134 363.967 90.2441 365.746C89.0645 367.525 70.782 363.967 50.7299 357.443C30.088 351.513 9.44586 343.21 4.72772 338.465C-2.93926 331.349 -1.76001 329.57 11.8046 324.232C21.2409 321.267 38.3448 316.523 50.7299 314.744C63.115 312.371 75.5 308.22 77.8591 305.848C80.2181 302.883 84.9359 301.697 88.4745 303.476ZM579.162 302.883C582.7 304.069 605.112 311.778 628.702 319.488C652.293 327.198 670.576 335.5 669.986 338.465C668.807 340.838 652.293 348.547 632.83 354.478C613.368 360.408 591.546 365.746 583.879 365.746C572.084 365.746 570.905 363.373 571.494 332.535C572.084 309.999 574.444 300.51 579.162 302.883ZM150.4 138.609C156.298 140.388 164.555 145.132 168.683 148.691C174.581 154.028 173.991 157.586 165.735 165.889C159.837 171.819 153.349 176.564 150.4 175.971C148.041 175.971 143.323 169.447 140.374 161.145C136.836 152.842 135.656 143.946 137.425 140.388C139.195 137.423 145.092 136.83 150.4 138.609ZM516.056 140.981C523.723 140.388 529.621 141.574 529.621 143.353C529.621 145.132 525.493 154.028 520.775 164.11C511.928 181.308 511.338 181.308 500.133 171.226C493.055 165.889 487.748 158.179 487.158 154.028C486.568 150.47 490.107 145.725 494.235 144.539C498.953 142.76 508.979 140.981 516.056 140.981ZM334.998 164.703C367.435 164.703 386.307 167.668 405.77 176.564C420.514 183.087 443.515 199.693 457.67 213.333C471.824 226.973 488.927 250.102 496.005 264.928C506.031 285.684 508.39 301.697 508.39 336.093C507.8 363.374 504.261 389.468 497.773 402.515C492.466 414.969 475.952 438.69 460.028 455.296C441.156 475.459 422.283 488.506 401.051 496.809C380.999 503.926 355.639 508.077 327.33 508.077C294.893 508.077 277.79 504.519 255.379 493.844C238.866 486.134 215.275 468.936 202.3 456.482C189.325 443.435 173.401 422.678 167.503 409.631C161.606 397.177 155.118 371.676 153.349 353.885C151.58 335.5 153.939 308.22 158.067 291.615C162.196 275.01 171.632 254.253 178.12 245.357C185.197 235.868 192.274 230.531 195.223 233.496C197.582 235.868 194.043 250.102 187.556 264.928C179.299 283.905 175.76 304.662 175.76 336.093C175.76 370.49 178.71 386.502 189.325 407.259C196.403 421.492 209.377 440.47 217.634 448.772C225.891 457.075 245.943 470.122 261.866 478.425C283.688 489.099 300.201 492.658 329.1 492.658C359.178 492.658 374.512 489.099 399.872 476.052C417.565 466.564 437.028 454.703 443.515 449.365C449.413 444.028 461.208 426.236 469.465 410.224C482.44 385.316 484.799 373.455 484.799 336.093C484.209 304.662 480.671 284.498 472.414 267.893C465.926 254.846 450.592 235.275 438.797 224.601C427.001 214.519 406.949 200.286 393.974 193.762C376.871 185.459 359.178 181.901 330.279 181.901C308.458 182.494 280.149 186.053 267.174 191.39C254.2 196.134 238.865 203.844 232.968 208.588C227.66 213.333 219.993 216.298 217.044 214.519C213.506 212.74 214.095 207.995 218.223 202.065C222.352 196.727 233.558 188.425 242.404 183.087C251.251 178.343 265.995 172.412 274.842 169.447C283.688 167.075 310.817 164.703 334.998 164.703ZM334.998 206.216C336.767 205.623 352.101 209.774 368.614 214.519C385.717 219.263 408.129 230.531 418.155 239.427C428.771 248.915 441.746 266.114 447.643 277.975C454.72 292.801 458.849 313.558 458.849 337.279C459.439 369.897 456.49 378.2 439.977 403.701C427.592 422.085 410.488 438.097 393.974 446.4C375.102 456.482 357.998 460.633 333.228 460.633C314.945 460.633 290.765 457.075 280.149 452.924C270.123 448.179 253.61 438.097 243.584 429.795C233.558 421.492 219.993 402.515 212.326 387.688C205.249 372.269 199.351 349.733 199.351 337.279C199.351 324.825 207.018 299.324 217.044 277.975C231.199 248.322 239.455 238.834 259.507 228.159C273.662 221.042 295.483 213.333 308.458 210.96C321.433 209.181 333.228 206.809 334.998 206.216ZM244.763 288.65C237.096 303.476 234.737 319.488 235.916 343.21C237.096 365.153 241.814 382.351 250.071 393.619C256.558 402.515 273.662 416.155 288.406 423.864C302.56 430.981 323.792 436.911 334.998 436.911C346.203 436.911 366.255 430.981 379.23 423.271C394.564 414.969 407.539 400.735 416.386 383.537C427.592 362.187 429.36 350.919 427.001 328.384C424.642 309.406 417.565 292.801 404 276.196C393.974 262.556 379.23 248.915 371.563 246.543C364.486 243.578 346.203 241.206 330.279 241.206C312.586 241.206 294.304 245.95 278.97 254.846C265.995 261.963 250.661 277.382 244.763 288.65ZM150.4 496.216C151.58 496.216 156.298 500.367 161.016 505.112C165.734 509.856 169.863 516.38 169.863 519.938C169.863 523.496 162.785 527.647 153.349 529.427C144.502 531.206 136.836 531.799 136.246 530.613C135.067 529.427 138.015 521.717 141.554 512.228C145.682 503.333 149.81 496.216 150.4 496.216ZM513.698 497.402C517.236 498.588 521.954 506.891 524.903 516.973C527.852 527.054 529.031 535.95 527.262 537.729C525.493 539.508 515.467 536.543 506.03 531.799C496.004 527.054 487.748 521.717 487.158 520.531C486.568 518.752 491.286 512.821 497.184 506.891C503.082 500.96 510.749 496.809 513.698 497.402ZM329.1 573.312C363.896 573.312 364.486 573.905 364.486 589.324C364.486 598.813 362.717 608.302 360.358 610.674C357.409 613.639 351.511 627.872 346.203 643.292C340.896 658.711 334.408 670.572 331.459 669.979C328.51 669.979 320.843 653.373 314.356 633.803C307.868 614.232 300.791 596.441 297.842 593.476C295.483 590.51 293.714 584.58 293.714 580.429C293.714 575.684 304.92 573.312 329.1 573.312ZM333.228 270.858C347.383 270.858 365.665 275.603 373.922 280.94C382.769 286.87 393.385 298.731 397.513 307.627C402.231 317.116 405.18 331.349 404.591 340.245C404.001 349.733 399.282 363.374 394.564 371.676C389.256 379.979 381 389.468 376.281 393.619C371.563 397.77 350.921 401.328 330.279 401.328C295.483 401.328 292.534 400.142 276.021 380.572C264.226 366.339 258.328 353.885 258.328 340.245C258.918 330.163 261.867 315.337 265.995 308.22C270.124 300.511 280.739 289.243 290.765 282.719C301.381 275.603 318.484 270.858 333.228 270.858Z"/>
</mask>
<path fill-rule="evenodd" clip-rule="evenodd" d="M334.408 0.428815C336.177 2.801 344.434 24.7438 352.691 49.0587C360.948 73.3736 366.255 94.1302 365.076 95.9094C363.896 97.6885 348.563 98.8746 330.87 98.8746C313.766 98.8746 298.432 96.5024 296.663 92.9442C294.893 89.3859 296.663 81.0832 300.791 73.3736C304.919 66.257 308.458 55.5822 309.637 49.6517C310.817 44.3143 316.125 30.0812 321.433 17.6272C326.741 5.76629 332.639 -1.94337 334.408 0.428815ZM88.4745 303.476C91.4233 305.848 94.3723 319.488 93.7825 334.907C93.7825 350.326 92.0134 363.967 90.2441 365.746C89.0645 367.525 70.782 363.967 50.7299 357.443C30.088 351.513 9.44586 343.21 4.72772 338.465C-2.93926 331.349 -1.76001 329.57 11.8046 324.232C21.2409 321.267 38.3448 316.523 50.7299 314.744C63.115 312.371 75.5 308.22 77.8591 305.848C80.2181 302.883 84.9359 301.697 88.4745 303.476ZM579.162 302.883C582.7 304.069 605.112 311.778 628.702 319.488C652.293 327.198 670.576 335.5 669.986 338.465C668.807 340.838 652.293 348.547 632.83 354.478C613.368 360.408 591.546 365.746 583.879 365.746C572.084 365.746 570.905 363.373 571.494 332.535C572.084 309.999 574.444 300.51 579.162 302.883ZM150.4 138.609C156.298 140.388 164.555 145.132 168.683 148.691C174.581 154.028 173.991 157.586 165.735 165.889C159.837 171.819 153.349 176.564 150.4 175.971C148.041 175.971 143.323 169.447 140.374 161.145C136.836 152.842 135.656 143.946 137.425 140.388C139.195 137.423 145.092 136.83 150.4 138.609ZM516.056 140.981C523.723 140.388 529.621 141.574 529.621 143.353C529.621 145.132 525.493 154.028 520.775 164.11C511.928 181.308 511.338 181.308 500.133 171.226C493.055 165.889 487.748 158.179 487.158 154.028C486.568 150.47 490.107 145.725 494.235 144.539C498.953 142.76 508.979 140.981 516.056 140.981ZM334.998 164.703C367.435 164.703 386.307 167.668 405.77 176.564C420.514 183.087 443.515 199.693 457.67 213.333C471.824 226.973 488.927 250.102 496.005 264.928C506.031 285.684 508.39 301.697 508.39 336.093C507.8 363.374 504.261 389.468 497.773 402.515C492.466 414.969 475.952 438.69 460.028 455.296C441.156 475.459 422.283 488.506 401.051 496.809C380.999 503.926 355.639 508.077 327.33 508.077C294.893 508.077 277.79 504.519 255.379 493.844C238.866 486.134 215.275 468.936 202.3 456.482C189.325 443.435 173.401 422.678 167.503 409.631C161.606 397.177 155.118 371.676 153.349 353.885C151.58 335.5 153.939 308.22 158.067 291.615C162.196 275.01 171.632 254.253 178.12 245.357C185.197 235.868 192.274 230.531 195.223 233.496C197.582 235.868 194.043 250.102 187.556 264.928C179.299 283.905 175.76 304.662 175.76 336.093C175.76 370.49 178.71 386.502 189.325 407.259C196.403 421.492 209.377 440.47 217.634 448.772C225.891 457.075 245.943 470.122 261.866 478.425C283.688 489.099 300.201 492.658 329.1 492.658C359.178 492.658 374.512 489.099 399.872 476.052C417.565 466.564 437.028 454.703 443.515 449.365C449.413 444.028 461.208 426.236 469.465 410.224C482.44 385.316 484.799 373.455 484.799 336.093C484.209 304.662 480.671 284.498 472.414 267.893C465.926 254.846 450.592 235.275 438.797 224.601C427.001 214.519 406.949 200.286 393.974 193.762C376.871 185.459 359.178 181.901 330.279 181.901C308.458 182.494 280.149 186.053 267.174 191.39C254.2 196.134 238.865 203.844 232.968 208.588C227.66 213.333 219.993 216.298 217.044 214.519C213.506 212.74 214.095 207.995 218.223 202.065C222.352 196.727 233.558 188.425 242.404 183.087C251.251 178.343 265.995 172.412 274.842 169.447C283.688 167.075 310.817 164.703 334.998 164.703ZM334.998 206.216C336.767 205.623 352.101 209.774 368.614 214.519C385.717 219.263 408.129 230.531 418.155 239.427C428.771 248.915 441.746 266.114 447.643 277.975C454.72 292.801 458.849 313.558 458.849 337.279C459.439 369.897 456.49 378.2 439.977 403.701C427.592 422.085 410.488 438.097 393.974 446.4C375.102 456.482 357.998 460.633 333.228 460.633C314.945 460.633 290.765 457.075 280.149 452.924C270.123 448.179 253.61 438.097 243.584 429.795C233.558 421.492 219.993 402.515 212.326 387.688C205.249 372.269 199.351 349.733 199.351 337.279C199.351 324.825 207.018 299.324 217.044 277.975C231.199 248.322 239.455 238.834 259.507 228.159C273.662 221.042 295.483 213.333 308.458 210.96C321.433 209.181 333.228 206.809 334.998 206.216ZM244.763 288.65C237.096 303.476 234.737 319.488 235.916 343.21C237.096 365.153 241.814 382.351 250.071 393.619C256.558 402.515 273.662 416.155 288.406 423.864C302.56 430.981 323.792 436.911 334.998 436.911C346.203 436.911 366.255 430.981 379.23 423.271C394.564 414.969 407.539 400.735 416.386 383.537C427.592 362.187 429.36 350.919 427.001 328.384C424.642 309.406 417.565 292.801 404 276.196C393.974 262.556 379.23 248.915 371.563 246.543C364.486 243.578 346.203 241.206 330.279 241.206C312.586 241.206 294.304 245.95 278.97 254.846C265.995 261.963 250.661 277.382 244.763 288.65ZM150.4 496.216C151.58 496.216 156.298 500.367 161.016 505.112C165.734 509.856 169.863 516.38 169.863 519.938C169.863 523.496 162.785 527.647 153.349 529.427C144.502 531.206 136.836 531.799 136.246 530.613C135.067 529.427 138.015 521.717 141.554 512.228C145.682 503.333 149.81 496.216 150.4 496.216ZM513.698 497.402C517.236 498.588 521.954 506.891 524.903 516.973C527.852 527.054 529.031 535.95 527.262 537.729C525.493 539.508 515.467 536.543 506.03 531.799C496.004 527.054 487.748 521.717 487.158 520.531C486.568 518.752 491.286 512.821 497.184 506.891C503.082 500.96 510.749 496.809 513.698 497.402ZM329.1 573.312C363.896 573.312 364.486 573.905 364.486 589.324C364.486 598.813 362.717 608.302 360.358 610.674C357.409 613.639 351.511 627.872 346.203 643.292C340.896 658.711 334.408 670.572 331.459 669.979C328.51 669.979 320.843 653.373 314.356 633.803C307.868 614.232 300.791 596.441 297.842 593.476C295.483 590.51 293.714 584.58 293.714 580.429C293.714 575.684 304.92 573.312 329.1 573.312ZM333.228 270.858C347.383 270.858 365.665 275.603 373.922 280.94C382.769 286.87 393.385 298.731 397.513 307.627C402.231 317.116 405.18 331.349 404.591 340.245C404.001 349.733 399.282 363.374 394.564 371.676C389.256 379.979 381 389.468 376.281 393.619C371.563 397.77 350.921 401.328 330.279 401.328C295.483 401.328 292.534 400.142 276.021 380.572C264.226 366.339 258.328 353.885 258.328 340.245C258.918 330.163 261.867 315.337 265.995 308.22C270.124 300.511 280.739 289.243 290.765 282.719C301.381 275.603 318.484 270.858 333.228 270.858Z" stroke="#EDC420" stroke-width="8" mask="url(#path-1-inside-1_2116_222)"/>
</g>
</svg>
