<svg width="419" height="729" viewBox="0 0 419 729" fill="none" xmlns="http://www.w3.org/2000/svg">
<path opacity="0.9" fill-rule="evenodd" clip-rule="evenodd" d="M365.852 0.466576C367.788 3.04766 376.821 26.9227 385.854 53.3788C394.887 79.8349 400.694 102.419 399.404 104.355C398.113 106.291 381.338 107.581 361.981 107.581C343.27 107.581 326.494 105 324.558 101.129C322.622 97.2572 324.558 88.2234 329.074 79.8348C333.591 72.0916 337.462 60.4767 338.753 54.024C340.043 48.2166 345.85 32.7302 351.657 19.1795C357.464 6.27407 363.917 -2.11451 365.852 0.466576ZM96.7937 330.2C100.02 332.781 103.246 347.622 102.601 364.399C102.601 381.176 100.665 396.017 98.7297 397.953C97.4392 399.889 77.4376 396.017 55.5 388.919C32.9172 382.467 10.3341 373.433 5.17227 368.271C-3.21564 360.527 -1.92551 358.592 12.9146 352.784C23.2382 349.558 41.9503 344.396 55.5 342.46C69.0497 339.879 82.5993 335.362 85.1802 332.781C87.761 329.554 92.9224 328.264 96.7937 330.2ZM633.62 329.554C637.492 330.845 662.01 339.234 687.819 347.622C713.628 356.011 733.63 365.044 732.985 368.271C731.694 370.852 713.628 379.24 692.335 385.693C671.043 392.146 647.169 397.953 638.781 397.953C625.877 397.953 624.587 395.372 625.232 361.818C625.877 337.298 628.458 326.973 633.62 329.554ZM164.542 150.815C170.994 152.75 180.028 157.913 184.545 161.784C190.997 167.592 190.352 171.463 181.319 180.497C174.866 186.95 167.768 192.112 164.542 191.467C161.961 191.467 156.8 184.369 153.574 175.335C149.702 166.301 148.412 156.622 150.348 152.75C152.283 149.524 158.735 148.879 164.542 150.815ZM564.581 153.396C572.969 152.75 579.421 154.041 579.421 155.977C579.421 157.913 574.905 167.592 569.743 178.561C560.065 197.274 559.419 197.274 547.16 186.304C539.417 180.497 533.611 172.109 532.965 167.592C532.32 163.72 536.191 158.558 540.708 157.267C545.87 155.331 556.838 153.396 564.581 153.396ZM366.497 179.207C401.985 179.207 422.632 182.433 443.924 192.112C460.055 199.21 485.219 217.277 500.704 232.119C516.19 246.96 534.901 272.125 542.644 288.257C553.613 310.842 556.193 328.264 556.193 365.69C555.548 395.372 551.677 423.764 544.579 437.96C538.772 451.511 520.706 477.321 503.285 495.389C482.637 517.328 461.99 531.524 438.762 540.558C416.825 548.301 389.08 552.818 358.109 552.818C322.622 552.818 303.911 548.946 279.392 537.332C261.326 528.943 235.517 510.23 221.322 496.68C207.127 482.484 189.706 459.899 183.254 445.703C176.802 432.152 169.704 404.406 167.768 385.048C165.833 365.044 168.414 335.362 172.93 317.294C177.447 299.227 187.771 276.642 194.868 266.963C202.611 256.639 210.354 250.831 213.58 254.058C216.161 256.639 212.289 272.125 205.192 288.257C196.158 308.906 192.287 331.49 192.287 365.69C192.287 403.115 195.514 420.538 207.128 443.122C214.87 458.609 229.065 479.257 238.098 488.291C247.131 497.325 269.069 511.521 286.49 520.555C310.363 532.169 328.429 536.041 360.045 536.041C392.952 536.041 409.727 532.169 437.472 517.973C456.829 507.649 478.121 494.744 485.219 488.936C491.671 483.129 504.576 463.771 513.609 446.348C527.804 419.247 530.384 406.342 530.384 365.69C529.739 331.49 525.868 309.551 516.835 291.484C509.737 277.288 492.961 255.994 480.057 244.379C467.152 233.409 445.215 217.923 431.02 210.825C412.308 201.791 392.951 197.919 361.335 197.919C337.462 198.565 306.492 202.436 292.297 208.244C278.102 213.406 261.326 221.794 254.873 226.957C249.066 232.119 240.679 235.345 237.453 233.409C233.581 231.473 234.226 226.311 238.743 219.858C243.259 214.051 255.519 205.017 265.198 199.21C274.876 194.048 291.007 187.595 300.685 184.369C310.363 181.788 340.043 179.207 366.497 179.207ZM366.497 224.375C368.433 223.73 385.209 228.247 403.275 233.409C421.986 238.571 446.505 250.831 457.474 260.511C469.088 270.835 483.283 289.548 489.735 302.453C497.478 318.585 501.994 341.169 501.994 366.98C502.64 402.47 499.414 411.504 481.348 439.25C467.798 459.254 449.086 476.676 431.02 485.71C410.373 496.68 391.661 501.196 364.562 501.196C344.56 501.196 318.105 497.325 306.491 492.808C295.523 487.646 277.457 476.676 266.488 467.642C255.519 458.609 240.679 437.96 232.291 421.828C224.548 405.051 218.096 380.531 218.096 366.98C218.096 353.429 226.484 325.683 237.453 302.453C252.938 270.19 261.971 259.865 283.909 248.25C299.394 240.507 323.268 232.119 337.462 229.538C351.657 227.602 364.562 225.021 366.497 224.375ZM267.778 314.068C259.39 330.2 256.809 347.622 258.1 373.433C259.39 397.308 264.552 416.021 273.585 428.281C280.683 437.96 299.394 452.801 315.525 461.19C331.01 468.933 354.238 475.386 366.497 475.386C378.757 475.386 400.694 468.933 414.889 460.544C431.665 451.511 445.86 436.024 455.539 417.311C467.798 394.082 469.733 381.821 467.152 357.301C464.571 336.652 456.828 318.585 441.988 300.517C431.02 285.676 414.889 270.835 406.501 268.254C398.758 265.027 378.756 262.446 361.335 262.446C341.979 262.446 321.977 267.609 305.201 277.288C291.006 285.031 274.23 301.808 267.778 314.068ZM164.542 539.913C165.833 539.913 170.995 544.43 176.157 549.592C181.318 554.754 185.835 561.852 185.835 565.723C185.835 569.595 178.092 574.112 167.768 576.048C158.09 577.984 149.703 578.629 149.057 577.338C147.767 576.048 150.992 567.659 154.864 557.335C159.38 547.656 163.897 539.913 164.542 539.913ZM562.001 541.203C565.872 542.494 571.033 551.527 574.259 562.497C577.485 573.467 578.776 583.146 576.84 585.082C574.905 587.017 563.936 583.791 553.612 578.629C542.643 573.467 533.611 567.659 532.965 566.369C532.32 564.433 537.482 557.98 543.934 551.527C550.386 545.075 558.774 540.558 562.001 541.203ZM360.045 623.798C398.113 623.798 398.759 624.443 398.759 641.22C398.759 651.544 396.823 661.869 394.242 664.45C391.016 667.676 384.564 683.163 378.757 699.94C372.95 716.717 365.852 729.622 362.626 728.977C359.4 728.977 351.012 710.909 343.915 689.615C336.817 668.321 329.074 648.963 325.848 645.737C323.267 642.511 321.332 636.058 321.332 631.541C321.332 626.379 333.591 623.798 360.045 623.798ZM364.562 294.71C380.047 294.71 400.049 299.872 409.082 305.679C418.76 312.132 430.374 325.038 434.891 334.717C440.053 345.041 443.279 360.527 442.634 370.207C441.989 380.531 436.827 395.372 431.665 404.406C425.858 413.44 416.825 423.764 411.663 428.281C406.501 432.798 383.918 436.669 361.335 436.669C323.267 436.669 320.041 435.379 301.975 414.085C289.071 398.598 282.618 385.048 282.618 370.207C283.264 359.237 286.49 343.105 291.007 335.362C295.523 326.973 307.137 314.713 318.106 307.615C329.72 299.872 348.431 294.71 364.562 294.71Z" fill="#EBBD07"/>
</svg>
