<svg width="638" height="381" viewBox="0 0 638 381" fill="none" xmlns="http://www.w3.org/2000/svg">
<path fill-rule="evenodd" clip-rule="evenodd" d="M0.321847 0.806111L47.1036 10.7384C73.0935 16.2562 106.026 22.9545 120.785 25.3542C135.544 27.7538 156.716 33.4961 167.947 36.6144C178.723 40.1497 196.405 45.7384 207.219 48.4011C217.16 51.0253 249.98 60.3416 279.728 69.9594C309.514 78.7046 360.322 96.6824 393.448 109.072C425.702 121.423 470.327 140.877 493.02 151.932C514.841 162.949 545.013 183.076 560.158 196.858C577.809 213.374 593.983 233.758 605.719 255.695C615.86 274.065 626.842 303.4 630.912 320.627C635.437 337.438 638.38 370.789 637.37 394.35C637.234 417.948 632.323 450.953 626.795 467.757C621.267 484.562 610.093 510.733 601.112 526.511C591.601 544.451 571.358 568.037 546.79 590.558C514.487 620.169 501.898 628.356 469.544 638.731C448.684 646.116 430.062 652.289 428.279 653.084C426.914 654.336 418.076 656.569 408.366 658.763C398.656 660.957 384.128 663.376 375.782 664.319C367.474 664.39 346.951 663.922 330.372 663.19C313.793 662.459 286.514 656.447 269.742 650.024C252.552 643.146 226.824 631.52 211.872 623.429C193.087 612.984 174.146 595.975 150.418 568.263C119.211 531.479 114.804 522.105 93.5564 456.91C81.2402 417.899 62.4979 355.437 53.1796 317.87C43.4063 280.72 31.4947 222.057 25.5171 188.134C19.9945 153.795 12.3339 97.9412 8.13879 63.223L0.321847 0.806111ZM173.45 336.727C168.526 349.624 164.22 378.721 164.12 401.447C164.476 423.757 168.821 454.984 174.256 470.961C180.108 487.393 197.273 515.252 215.535 537.914C243.782 572.382 250.538 577.926 287.005 593.96C311.48 604.219 343.086 611.296 367.517 612.374C391.531 612.996 421.46 608.197 443.268 599.105C466.82 590.09 490.179 575.384 511.525 556.655C529.232 541.262 549.893 518.132 556.979 505.768C564.065 493.403 573.987 465.865 579.284 444.242C584.126 423.036 587.865 396.974 586.114 386.843C584.817 376.294 578.809 353.299 573.448 335.577C564.897 310.721 554.644 294.969 527.538 264.485C496.219 230.319 487.3 224.243 453.756 211.398C431.824 202.999 397.981 197.135 373.057 197.347C349.878 197.635 317.294 203.192 301.252 210.353C285.247 216.641 262.38 230.057 249.753 239.117C237.543 248.632 217.45 268.727 204.979 284.351C192.963 299.558 178.41 322.958 173.45 336.727ZM267.984 272.705C286.525 258.224 309.773 246.136 333.213 239.739C352.671 234.477 380.4 230.018 394.778 231.089C409.194 231.288 433.856 237.185 449.301 243.986C468.615 252.269 486.416 265.294 506.878 287.616C528.592 311.305 538.01 326.145 543.258 346.485C546.985 361.512 550.264 387.01 549.554 403.589C549.299 419.752 543.285 447.9 536.847 465.538C526.09 492.165 517.751 503.163 487.723 530.688C457.278 557.759 446.053 564.695 422.687 569.346C407.249 572.6 382.213 575.429 366.469 575.609C351.181 575.372 325.116 571.599 308.307 566.049C282.429 557.913 272.258 550.47 243.824 520.365C218.769 493.032 208.934 477.736 203.991 460.47C201.061 447.227 198.125 423.93 197.926 408.184C198.599 392.477 201.696 371.195 205.672 360.005C209.611 349.688 218.741 330.42 225.828 318.056C232.914 305.692 252.134 285.557 267.984 272.705ZM260.045 376.392C253.719 391.412 250.204 412.239 251.919 423.243C253.633 434.247 258.956 452.841 263.705 464.416C268 476.408 282.048 495.387 295.105 506.891C312.756 523.407 326.456 530.131 353.356 534.815C377.638 539.383 397.819 537.65 420.006 529.887C436.884 523.637 459.259 511.51 468.358 503.169C477.912 494.411 490.533 475.297 496.821 461.149C503.147 446.129 508.482 423.634 508.625 410.089C509.186 397 505.265 376.282 501.426 363.873C496.333 350.097 484.791 333.851 471.316 321.892C459.548 310.881 438.675 298.158 425.356 292.762C411.999 288.239 394.28 283.523 385.517 284.011C377.627 284.537 360.026 287.257 347.624 291.081C334.803 294.45 314.666 305.364 302.457 314.879C290.247 324.395 278.381 336.111 275.994 340.814C273.607 345.517 265.916 361.788 260.045 376.392ZM324.402 343.387C340.251 330.535 357.166 323.413 374.312 321.109C388.803 319.563 408.797 322.193 419.953 327.057C430.654 332.337 445.494 343.046 452.556 351.663C460.073 359.863 468.125 375.955 470.674 387.87C472.806 399.329 470.999 421.106 466.874 435.786C460.704 457.37 453.729 467.117 433.823 482.849C415.699 497.786 403.259 502.483 386.643 502.624C373.972 502.502 355.761 499.076 345.857 495.579C335.954 492.082 320.279 480.463 309.801 469.947C298.527 457.647 291.309 442.466 289.252 429.261C287.575 417.385 289.725 397.809 293.321 385.291C298.394 368.904 306.733 357.907 324.402 343.387Z" fill="white"/>
</svg>
