<svg width="410" height="681" viewBox="0 0 410 681" fill="none" xmlns="http://www.w3.org/2000/svg">
<path d="M305.051 204.084L305.065 204.108L305.079 204.131C318.652 226.573 340.091 266.819 353.701 293.506C366.764 319.624 383.489 357.244 391.321 377.078C398.598 396.307 405.872 425.944 407.426 443.001C408.98 463.212 407.421 484.97 402.245 505.15L402.242 505.162L402.239 505.175C398.094 522.267 388.213 546.699 380.969 559.63L380.954 559.658L380.94 559.685C374.253 572.54 357.116 594.886 343.076 608.921L343.05 608.947L343.025 608.974C329.519 623.514 307.688 641.167 294.817 648.372C281.823 655.646 259.954 665.533 245.439 670.197L245.41 670.206L245.382 670.216C229.468 675.862 203.554 679 175.363 679C156.786 679 144.507 678.474 133.638 676.481C122.806 674.495 113.289 671.035 100.274 665.05L100.247 665.037L100.219 665.026C91.5898 661.366 83.4818 657.836 77.3298 655.154L76.227 654.673C73.6341 653.542 71.4316 652.582 69.7467 651.855C67.8848 651.051 66.5331 650.479 66.0358 650.313L65.728 650.211H65.4572C65.4358 650.206 65.3465 650.189 65.1686 650.134C64.9036 650.052 64.5461 649.919 64.0918 649.729C63.1855 649.348 62.0091 648.785 60.62 648.074C57.8477 646.657 54.3455 644.712 50.6872 642.622C43.4549 638.491 33.1104 631.772 27.3926 627.622C22.1475 622.896 9.68333 610.954 -0.205124 601.069C-9.98023 591.297 -23.4678 572.121 -30.1932 558.68C-36.9765 544.595 -46.3603 522.701 -51.0398 509.19C-56.6865 492.249 -58.7853 471.067 -57.7419 440.288C-56.9575 419.902 -55.9147 407.8 -52.1201 394.234C-48.3085 380.607 -41.7052 365.445 -29.6491 338.982C-14.9908 307.582 9.07101 257.908 24.7465 229.179L24.7533 229.167L24.7599 229.154C39.9066 200.437 66.0491 157.052 81.7426 132.473C97.9582 107.897 125.165 68.67 142.429 44.612L142.434 44.6049L171.701 3.4457L193.633 34.1398C206.718 52.4534 223.502 75.5244 231.391 85.514C239.153 95.3431 249.026 110.918 254.279 119.319C258.989 127.689 266.854 141.318 272.129 149.231C276.833 156.546 291.988 181.1 305.051 204.084ZM42.9917 342.543L42.9779 342.558L42.9644 342.573C30.3163 356.798 14.9895 378.958 9.11693 392.3L9.11118 392.313L9.10562 392.327C3.21922 406.235 -2.03805 433.711 -3.61504 458.409L-3.61557 458.417L-3.61602 458.426C-4.662 477.247 -4.94228 488.711 -3.20026 499.361C-1.45383 510.038 2.30727 519.794 9.11739 535.243L9.12438 535.258L9.13165 535.274C18.6522 555.895 34.4946 578.6 49.3284 593.429L49.3413 593.442L49.3544 593.455C64.1801 607.746 85.869 622.038 105.014 628.956C125.159 636.901 148.425 641.119 172.692 641.647C192.688 642.173 219.123 639.557 230.949 635.796C242.721 632.051 264.89 620.423 280.672 609.905L280.685 609.897L280.698 609.888C288.338 604.62 296.507 598.43 303.369 592.625C310.14 586.898 315.843 581.379 318.394 577.435C323.748 569.925 333.219 552.019 340.009 537.921L340.025 537.887L340.04 537.852C349.091 517.096 351.725 501.094 352.25 466.418L352.25 466.403V466.388C352.25 446.762 351.732 434.533 349.458 423.772C347.177 412.974 343.151 403.754 336.331 390.118C327.309 372.081 309.348 348.852 293.467 334.564L293.461 334.559C286.034 327.929 276.387 320.799 266.823 314.733C257.302 308.694 247.735 303.628 240.443 301.191C226.63 295.888 204.5 291.155 191.309 289.572L191.27 289.568L191.231 289.564C177.96 288.503 153.715 289.562 136.83 292.199L136.821 292.201C120.5 294.832 97.759 301.153 86.4842 307.051C75.7065 312.445 56.1567 328.33 42.9917 342.543ZM284.913 370.922L284.955 370.966L284.999 371.008C293.669 379.166 305.57 396.726 311.243 409.615L311.247 409.624L311.251 409.633C318.436 425.537 322.07 443.561 322.07 469.005C322.07 496.072 319.466 510.35 311.313 525.636C305.098 537.022 292.644 554.648 282.861 564.428L282.842 564.447L282.823 564.467C273.596 574.203 253.919 588.198 239.925 595.457C229.03 600.643 220.833 603.702 211.13 605.489C201.376 607.286 190.016 607.811 172.759 607.812C155.489 607.55 144.273 606.894 135.251 605.039C126.303 603.2 119.448 600.166 110.947 595.015L110.938 595.009L110.928 595.004C99.5243 588.267 82.3664 575.793 72.5159 566.986C63.2174 558.201 49.2282 541.1 42.015 528.224L42.008 528.211L42.0008 528.199C36.2998 518.355 33.0028 510.968 31.0336 501.76C29.0505 492.488 28.3944 481.284 28.1324 463.756C28.1333 432.481 30.7479 417.688 37.3188 404.524C43.0168 394.699 54.4078 378.656 63.1913 368.833C72.5474 359.487 86.4803 348.165 95.1174 343.587C103.401 339.449 120.041 332.691 131.462 329.058C136.997 327.298 145.582 326.002 155.028 325.286C164.433 324.573 174.544 324.444 183.078 324.96C202.722 326.513 223.922 332.202 241.991 341.492C257.116 349.312 276.771 362.274 284.913 370.922ZM130.068 572.392L130.084 572.399L130.101 572.406C137.277 575.329 146.144 578.105 154.533 580.152C162.887 582.19 170.929 583.546 176.41 583.546C187.76 583.546 206.887 578.741 219.097 573.434L219.115 573.427L219.132 573.418C231.86 567.587 248.308 556.473 256.389 547.866C264.463 539.784 273.991 524.4 278.752 514.354L278.775 514.306L278.795 514.256C283.651 502.389 285.766 485.312 284.173 469.873C283.099 455.995 277.27 435.884 271.943 424.7L271.917 424.647L271.889 424.596C268.985 419.317 265.417 413.372 261.839 408.139C258.297 402.958 254.626 398.298 251.506 395.745L251.497 395.738L251.489 395.732C246.156 391.467 233.483 383.02 223.382 378.23C213.119 372.844 194.018 368.095 180.758 367.034C174.137 366.505 167.254 366.372 161.484 366.571C158.599 366.67 155.971 366.853 153.78 367.115C151.632 367.372 149.763 367.721 148.48 368.202C144.243 369.79 130.061 375.566 117.964 381.349C111.523 384.302 104.724 388.572 98.8704 393.094C93.0408 397.597 88.0014 402.464 85.2077 406.653C79.8821 414.639 72.4968 429.408 68.7787 439.482C66.5832 444.716 64.9918 452.378 64.1346 460.485C63.2731 468.633 63.1354 477.402 63.9353 484.892C64.7313 495.214 66.3309 503.533 69.5682 511.624C72.8032 519.708 77.6318 527.46 84.7568 536.694C97.5337 553.721 111.427 564.406 130.068 572.392ZM251.385 477.793L251.382 477.848V477.904C251.382 482.365 250.382 488.189 248.709 494.039C247.043 499.871 244.75 505.582 242.246 509.844C239.761 513.809 235.204 518.894 229.833 523.875C224.474 528.845 218.427 533.599 213.066 536.918C205.054 541.827 198.723 544.717 191.823 546.222C184.901 547.732 177.271 547.878 166.607 547.097L166.587 547.096L166.566 547.095C156.729 546.577 149.354 545.289 143.195 543.027C137.069 540.777 132.05 537.529 126.97 532.961C119.282 525.783 110 513.407 105.916 505.752C103.956 502.078 102.169 496.279 100.808 489.732C99.4568 483.237 98.5563 476.165 98.297 470.011C98.3052 456.257 102.391 443.063 108.426 434.008C113.987 425.93 126.299 415.133 135.547 409.479C147.66 402.42 158.751 400.352 177.869 401.384C194.787 402.411 209.081 407.526 220.801 415.67C230.501 422.823 241.216 435.608 245.251 444.65C248.839 453.895 251.887 468.75 251.385 477.793Z" stroke="#02FDE3" stroke-opacity="0.5" stroke-width="4"/>
</svg>
