<svg width="368" height="804" viewBox="0 0 368 804" fill="none" xmlns="http://www.w3.org/2000/svg">
<path fill-rule="evenodd" clip-rule="evenodd" d="M87.1071 0L114.881 38.9332C130.311 60.5628 150.061 87.7541 159.319 99.4958C168.577 111.238 180.304 129.777 186.476 139.665C192.031 149.553 201.289 165.62 207.461 174.89C213.015 183.542 230.914 212.587 246.344 239.779C262.391 266.352 287.697 313.937 303.744 345.454C319.174 376.354 338.924 420.849 348.182 444.332C356.822 467.198 365.463 502.423 367.315 522.816C369.167 546.918 367.315 572.873 361.143 596.975C356.205 617.368 344.478 646.414 335.838 661.863C327.814 677.313 307.447 703.886 290.782 720.572C274.735 737.875 248.813 758.887 233.383 767.539C217.953 776.19 192.031 787.932 174.749 793.494C155.616 800.292 124.756 804 91.4276 804C47.6066 804 32.7939 801.528 1.93398 787.314C-18.4335 778.663 -36.3323 770.629 -38.1839 770.011C-40.0355 770.011 -48.059 765.685 -56.6998 760.741C-65.3406 755.797 -77.6845 747.763 -84.4737 742.819C-90.6457 737.257 -105.458 723.044 -117.185 711.302C-128.912 699.56 -144.959 676.695 -152.982 660.627C-161.006 643.942 -172.116 617.986 -177.67 601.918C-184.46 581.525 -186.929 556.188 -185.694 519.726C-183.843 471.523 -180.756 461.636 -152.365 399.219C-135.084 362.14 -106.693 303.431 -88.1767 269.442C-70.278 235.453 -39.4183 184.16 -20.9024 155.115C-1.76929 126.069 30.3252 79.7203 50.6927 51.293L87.1071 0ZM-12.2615 364.612C-24.6054 370.792 -47.4418 389.331 -62.8718 406.017C-77.6845 422.702 -95.5834 448.658 -102.373 464.108C-109.162 480.175 -115.333 512.311 -117.185 541.356C-119.654 585.851 -118.42 594.503 -102.373 630.964C-91.263 655.065 -72.7468 681.639 -55.4653 698.942C-38.1838 715.628 -12.8787 732.314 9.34042 740.348C32.7939 749.617 59.9505 754.561 88.3416 755.179C111.795 755.797 142.655 752.707 156.233 748.381C169.812 744.055 195.734 730.46 214.25 718.1C232.149 705.74 252.516 689.055 258.071 680.403C264.243 671.751 275.352 650.739 283.376 634.054C293.868 609.952 296.955 591.413 297.572 550.626C297.572 504.277 295.103 493.771 279.056 461.636C268.563 440.624 247.579 413.433 229.063 396.747C211.781 381.297 184.007 363.376 167.343 357.814C151.296 351.634 125.373 346.072 109.944 344.218C94.5136 342.982 66.1226 344.218 46.3723 347.308C27.2391 350.398 0.699661 357.814 -12.2615 364.612ZM100.686 381.297C124.139 383.151 149.444 389.949 171.046 401.073C188.945 410.343 212.398 425.793 222.274 436.298C232.766 446.186 246.961 467.198 253.75 482.647C262.391 501.805 266.712 523.434 266.712 553.716C266.712 585.851 263.626 603.155 253.75 621.694C246.344 635.29 231.531 656.301 219.805 668.043C208.695 679.785 185.242 696.47 168.577 705.122C142.655 717.482 129.077 719.954 88.3416 719.954C47.6066 719.336 34.6454 716.864 14.2779 704.504C0.69957 696.471 -19.6681 681.639 -31.3948 671.133C-42.5044 660.627 -59.1685 640.234 -67.8093 624.784C-81.3876 601.301 -83.8565 588.941 -84.4737 547.536C-84.4737 510.457 -81.3878 492.535 -73.3642 476.467C-66.575 464.726 -52.9967 445.568 -42.5043 433.826C-31.3948 422.702 -14.7304 409.107 -4.23801 403.545C5.63716 398.601 25.3875 390.567 38.9658 386.242C52.5442 381.916 80.3181 380.061 100.686 381.297ZM24.7703 452.366C9.95761 459.164 -6.70694 472.141 -12.8789 481.411C-19.0509 490.681 -27.6915 507.985 -32.0119 519.726C-36.9495 531.468 -39.4184 554.952 -37.5668 572.255C-35.7152 596.357 -30.1603 610.57 -13.496 632.2C1.31677 651.976 17.3639 664.335 38.9658 673.605C55.6301 680.403 80.3181 686.583 92.6621 686.583C105.623 686.583 127.842 681.021 142.038 674.841C156.851 668.043 175.984 655.065 185.242 645.177C194.5 635.908 205.609 617.986 211.164 606.244C216.719 592.649 219.188 572.873 217.336 554.952C216.102 538.884 209.312 515.401 203.14 502.423C196.351 490.063 186.476 474.613 179.687 469.051C173.515 464.108 158.702 454.22 146.975 448.658C135.249 442.478 113.03 436.916 97.5996 435.68C82.1696 434.444 65.5053 435.062 60.5677 436.916C55.6301 438.77 38.9659 445.568 24.7703 452.366ZM94.5136 471.524C114.881 472.76 132.163 478.939 146.358 488.827C158.085 497.479 171.046 512.929 175.984 524.052C180.304 535.176 184.007 553.098 183.39 564.221C183.39 575.345 178.452 592.649 172.28 603.155C166.108 613.042 150.062 627.874 137.1 635.908C117.967 647.649 106.24 650.121 80.9352 648.267C57.4817 647.031 45.1378 642.088 32.7938 630.964C23.5359 622.312 12.4265 607.481 7.48891 598.211C2.55133 588.941 -1.15186 569.783 -1.76906 554.952C-1.76906 538.266 3.16852 522.198 10.5749 511.074C17.3641 501.187 32.1767 488.209 43.2863 481.411C58.099 472.759 71.6773 470.288 94.5136 471.524Z" fill="#02FDE3"/>
</svg>
