<svg width="474" height="455" viewBox="0 0 474 455" fill="none" xmlns="http://www.w3.org/2000/svg">
<path d="M471.105 74.6687L471.105 74.6958L471.105 74.723C471.467 100.948 469.611 146.51 467.857 176.416C465.919 205.554 461.324 246.466 458.052 267.539C454.605 287.808 445.894 317.055 438.609 332.555C429.729 350.778 417.382 368.761 402.712 383.553L402.703 383.562L402.693 383.571C390.474 396.221 369.595 412.302 356.806 419.795L356.78 419.811L356.753 419.827C344.484 427.536 318.399 438.148 299.19 443.157L299.154 443.166L299.119 443.177C280.115 448.891 252.353 453.08 237.606 452.788C222.718 452.492 198.85 449.963 183.97 446.647L183.941 446.641L183.911 446.635C167.327 443.458 143.383 433.061 119.062 418.805C103.036 409.411 92.7086 402.748 84.3396 395.532C75.9993 388.341 69.5384 380.543 61.3366 368.799L61.3195 368.774L61.3016 368.75C55.7074 361.229 50.4974 354.083 46.5465 348.658L45.8382 347.686C44.1731 345.399 42.7587 343.457 41.6727 341.977C40.4727 340.343 39.596 339.165 39.2508 338.771L39.0371 338.527L38.8034 338.39C38.7873 338.375 38.7189 338.315 38.5932 338.178C38.406 337.973 38.1646 337.678 37.8692 337.284C37.2798 336.497 36.5496 335.416 35.7105 334.101C34.0358 331.476 31.9977 328.027 29.8984 324.374C25.7482 317.153 20.2217 306.125 17.387 299.654C15.252 292.924 10.5378 276.319 7.00564 262.79C3.51401 249.417 1.57511 226.053 2.56999 211.056C3.84064 195.474 6.81625 171.841 9.6117 157.818C13.3071 140.347 22.2079 121.012 38.6722 94.9864C49.658 77.7955 56.6778 67.8816 66.8115 58.097C76.9907 48.2684 90.3548 38.5269 114.138 21.7939C142.662 2.11701 188.54 -28.5697 216.591 -45.4278L216.604 -45.4351L216.616 -45.4426C244.205 -62.5579 288.698 -86.767 314.666 -100.036C341.083 -113.038 384.391 -133.122 411.452 -145.147L411.459 -145.15L457.522 -165.859L460.921 -128.288C462.95 -105.872 465.762 -77.4807 467.517 -64.8732C469.243 -52.4681 469.885 -34.039 470.168 -24.1344C469.999 -14.532 469.892 1.20369 470.442 10.6971C470.8 19.3872 471.458 48.2337 471.105 74.6687ZM175.005 61.5994L174.986 61.6053L174.967 61.6116C156.862 67.4873 132.433 78.8548 120.619 87.3958L120.608 87.4042L120.596 87.4127C108.485 96.4354 90.0551 117.48 76.2051 137.991L76.2004 137.997L76.1959 138.004C65.7758 153.713 59.7368 163.461 55.8542 173.53C51.9617 183.624 50.2729 193.943 48.3359 210.715L48.3339 210.732L48.3322 210.749C46.118 233.354 48.304 260.953 53.6025 281.247L53.6071 281.265L53.612 281.283C59.1754 301.109 70.6593 324.407 83.6781 340.057C97.0398 357.098 114.979 372.502 135.647 385.229C152.632 395.795 176.761 406.906 188.865 409.641C200.915 412.364 225.921 413.542 244.854 412.449L244.87 412.448L244.886 412.447C254.141 411.766 264.319 410.557 273.174 409.019C281.912 407.502 289.623 405.624 293.818 403.512C302.235 399.741 319.46 389.082 332.447 380.353L332.479 380.332L332.509 380.31C350.814 366.979 361.177 354.506 379.166 324.857L379.174 324.844L379.181 324.831C389.106 307.899 394.842 297.086 398.323 286.653C401.816 276.184 403.005 266.193 404.016 250.98C405.354 230.858 401.605 201.735 395.129 181.377L395.127 181.37C392.072 171.895 387.355 160.865 382.172 150.795C377.012 140.77 371.32 131.563 366.261 125.772C357.027 114.213 340.328 98.9384 329.748 90.9029L329.717 90.8789L329.684 90.8562C318.772 83.2298 297.32 71.8827 281.42 65.6196L281.411 65.6161C266 59.6334 243.185 53.5864 230.475 52.9736C218.449 52.1766 193.551 55.9946 175.005 61.5994ZM369.364 208.419L369.378 208.478L369.395 208.536C372.75 219.959 374.137 241.126 372.513 255.115L372.512 255.124L372.511 255.134C370.667 272.488 364.688 289.875 351.82 311.827C338.133 335.178 328.667 346.179 313.903 355.243C302.784 361.923 283.126 370.832 269.74 374.322L269.714 374.329L269.688 374.336C256.805 378.07 232.751 380.193 217.008 379.379C204.986 378.343 196.368 376.838 187.093 373.473C177.77 370.09 167.703 364.799 152.815 356.073C138.048 347.114 128.704 340.877 121.858 334.714C115.069 328.602 110.69 322.518 105.96 313.776L105.955 313.766L105.949 313.756C99.5176 302.178 91.0232 282.74 86.9785 270.16C83.3989 257.879 79.9779 236.052 80.2665 221.295L80.2667 221.281L80.2668 221.267C80.3264 209.891 81.2175 201.851 84.1749 192.912C87.1531 183.909 92.2528 173.912 100.89 158.658C116.706 131.677 126.442 120.237 138.768 112.203C148.653 106.608 166.593 98.5272 179.138 94.4944C191.935 91.1629 209.681 88.4408 219.447 88.8595C228.686 89.4786 246.459 92.0625 258.149 94.7038C263.815 95.984 271.876 99.2081 280.387 103.366C288.862 107.507 297.65 112.509 304.752 117.269C320.914 128.543 336.326 144.172 347.218 161.324C356.311 175.719 366.713 196.84 369.364 208.419ZM133.896 303.927L133.907 303.942L133.918 303.956C138.631 310.106 144.876 316.985 151.079 322.994C157.255 328.976 163.507 334.212 168.236 336.984C178.028 342.724 196.959 348.251 210.175 349.847L210.195 349.85L210.214 349.851C224.143 351.257 243.954 349.985 255.278 346.648C266.33 343.758 282.33 335.304 291.517 329.045L291.562 329.014L291.605 328.981C301.794 321.2 312.254 307.536 318.687 293.411C324.779 280.895 329.92 260.598 330.98 248.255L330.985 248.196L330.986 248.138C331.15 242.116 331.079 235.182 330.638 228.858C330.202 222.597 329.392 216.72 327.991 212.941L327.987 212.93L327.983 212.92C325.539 206.544 318.877 192.848 312.584 183.608C306.455 173.771 292.377 160.015 281.474 152.395C276.03 148.59 270.159 144.995 265.08 142.248C262.541 140.875 260.181 139.704 258.158 138.822C256.175 137.958 254.387 137.313 253.037 137.079C248.578 136.307 233.422 134.119 220.062 132.991C213.012 132.281 204.986 132.526 197.65 133.467C190.344 134.404 183.535 136.055 179.006 138.256C170.374 142.452 156.533 151.46 148.232 158.27C143.691 161.675 138.443 167.481 133.604 174.042C128.74 180.636 124.187 188.131 121.09 194.997C116.557 204.304 113.73 212.291 112.432 220.908C111.134 229.518 111.38 238.647 112.857 250.217C115.27 271.367 121.853 287.611 133.896 303.927ZM286.396 283.663L286.365 283.71L286.337 283.757C284.081 287.606 280.273 292.125 275.872 296.326C271.485 300.515 266.619 304.282 262.304 306.693C258.155 308.857 251.652 310.939 244.5 312.52C237.363 314.098 229.742 315.142 223.438 315.294C214.044 315.477 207.121 314.77 200.407 312.579C193.672 310.381 187.016 306.648 178.21 300.583L178.193 300.571L178.176 300.56C169.951 295.139 164.24 290.298 160.071 285.232C155.923 280.193 153.236 274.853 151.163 268.343C148.16 258.263 146.411 242.892 146.759 234.222C146.925 230.062 148.317 224.156 150.453 217.819C152.572 211.532 155.371 204.976 158.26 199.535C165.222 187.673 175.419 178.357 185.204 173.597C194.087 169.44 210.168 166.351 221.005 166.15C235.026 166.186 245.64 170.01 261.611 180.568C275.687 190.009 285.432 201.651 291.425 214.603C296.176 225.679 298.955 242.128 297.864 251.969C296.285 261.759 291.402 276.116 286.396 283.663Z" stroke="white" stroke-width="4"/>
</svg>
